<svg width="390" height="844" viewBox="0 0 390 844" fill="none" xmlns="http://www.w3.org/2000/svg">
<g clip-path="url(#clip0_1022_2741)">
<path d="M242.48 59.9492L231.215 101.456H202.771V59.9492H219.267L216.768 85.7649C216.768 87.1844 218.795 87.4537 219.168 86.0813L226.259 59.9492H242.48Z" fill="#442000"/>
<path d="M246.126 59.9453L238.799 86.9368L234.861 101.452H251.142L255.081 86.9368H259.538L258.134 101.452H276V59.9453H246.126ZM258.362 80.8997C257.7 80.8997 257.082 80.7372 256.541 80.4465C255.244 79.7496 254.393 78.3344 254.535 76.7311C254.69 74.9439 256.133 73.4731 257.924 73.2722C260.243 73.0156 262.205 74.8199 262.205 77.0731C262.205 79.0356 260.724 80.6517 258.813 80.8741C258.667 80.8912 258.516 80.8997 258.362 80.8997Z" fill="#442000"/>
<path d="M178.347 58C165.863 58 155.749 68.0774 155.749 80.4979C155.749 92.9183 165.867 102.996 178.347 102.996C190.828 102.996 200.946 92.9226 200.946 80.4979C200.946 68.0732 190.828 58 178.347 58ZM178.347 87.0907C174.693 87.0907 171.729 84.1363 171.729 80.4979C171.729 76.8594 174.688 73.9093 178.347 73.9093C182.006 73.9093 184.965 76.8637 184.965 80.4979C184.965 84.1321 182.006 87.0907 178.347 87.0907Z" fill="#442000"/>
<path d="M154.014 101.123V101.465H137.432V76.372C137.432 74.6447 136.204 73.1013 134.481 72.8533C132.338 72.5497 130.496 74.1915 130.496 76.2694V101.465H114V59.9326H153.923V101.059C153.953 101.08 153.984 101.102 154.014 101.123Z" fill="#442000"/>
</g>
<path d="M24.52 179.44H26.96C27.32 179.44 27.6667 179.413 28 179.36C28.3333 179.307 28.6267 179.207 28.88 179.06C29.1333 178.9 29.3333 178.68 29.48 178.4C29.64 178.12 29.72 177.753 29.72 177.3C29.72 176.847 29.64 176.48 29.48 176.2C29.3333 175.92 29.1333 175.707 28.88 175.56C28.6267 175.4 28.3333 175.293 28 175.24C27.6667 175.187 27.32 175.16 26.96 175.16H24.52V179.44ZM21.38 172.72H27.82C28.7133 172.72 29.4733 172.853 30.1 173.12C30.7267 173.373 31.2333 173.713 31.62 174.14C32.02 174.567 32.3067 175.053 32.48 175.6C32.6667 176.147 32.76 176.713 32.76 177.3C32.76 177.873 32.6667 178.44 32.48 179C32.3067 179.547 32.02 180.033 31.62 180.46C31.2333 180.887 30.7267 181.233 30.1 181.5C29.4733 181.753 28.7133 181.88 27.82 181.88H24.52V187H21.38V172.72ZM34.7198 172.72H37.8598V184.36H44.8198V187H34.7198V172.72ZM50.1753 181.48H53.8753L52.0753 176.24H52.0353L50.1753 181.48ZM50.4753 172.72H53.6953L59.0353 187H55.7753L54.6953 183.82H49.3553L48.2353 187H45.0753L50.4753 172.72ZM62.4823 181.44L57.2423 172.72H60.7623L64.1023 178.36L67.4223 172.72H70.9223L65.6223 181.52V187H62.4823V181.44ZM72.1222 172.72H82.8022V175.36H75.2622V178.42H82.1822V180.86H75.2622V184.36H82.9622V187H72.1222V172.72ZM88.2309 179.18H91.6709C92.3909 179.18 92.9309 179.02 93.2909 178.7C93.6509 178.38 93.8309 177.86 93.8309 177.14C93.8309 176.447 93.6509 175.947 93.2909 175.64C92.9309 175.32 92.3909 175.16 91.6709 175.16H88.2309V179.18ZM85.0909 172.72H92.7909C93.4309 172.72 94.0043 172.827 94.5109 173.04C95.0309 173.24 95.4709 173.52 95.8309 173.88C96.2043 174.24 96.4843 174.66 96.6709 175.14C96.8709 175.607 96.9709 176.113 96.9709 176.66C96.9709 177.5 96.7909 178.227 96.4309 178.84C96.0843 179.453 95.5109 179.92 94.7109 180.24V180.28C95.0976 180.387 95.4176 180.553 95.6709 180.78C95.9243 180.993 96.1309 181.253 96.2909 181.56C96.4509 181.853 96.5643 182.18 96.6309 182.54C96.7109 182.9 96.7643 183.26 96.7909 183.62C96.8043 183.847 96.8176 184.113 96.8309 184.42C96.8443 184.727 96.8643 185.04 96.8909 185.36C96.9309 185.68 96.9843 185.987 97.0509 186.28C97.1309 186.56 97.2443 186.8 97.3909 187H94.2509C94.0776 186.547 93.9709 186.007 93.9309 185.38C93.8909 184.753 93.8309 184.153 93.7509 183.58C93.6443 182.833 93.4176 182.287 93.0709 181.94C92.7243 181.593 92.1576 181.42 91.3709 181.42H88.2309V187H85.0909V172.72ZM111.551 187H108.711V177.92H105.191V175.78C105.684 175.793 106.158 175.76 106.611 175.68C107.078 175.587 107.491 175.433 107.851 175.22C108.224 174.993 108.538 174.7 108.791 174.34C109.044 173.98 109.211 173.533 109.291 173H111.551V187Z" fill="#ECD2BB"/>
<path d="M21.6 198.72H24.2L28.7 210.72L33.22 198.72H35.82V213H34.02V201.12H33.98L29.52 213H27.9L23.44 201.12H23.4V213H21.6V198.72ZM40.5019 200.8H38.8019V198.72H40.5019V200.8ZM38.8019 202.66H40.5019V213H38.8019V202.66ZM43.1355 202.66H44.7355V204.3H44.7755C45.4821 203.047 46.6021 202.42 48.1355 202.42C48.8155 202.42 49.3821 202.513 49.8355 202.7C50.2888 202.887 50.6555 203.147 50.9355 203.48C51.2155 203.813 51.4088 204.213 51.5155 204.68C51.6355 205.133 51.6955 205.64 51.6955 206.2V213H49.9955V206C49.9955 205.36 49.8088 204.853 49.4355 204.48C49.0621 204.107 48.5488 203.92 47.8955 203.92C47.3755 203.92 46.9221 204 46.5355 204.16C46.1621 204.32 45.8488 204.547 45.5955 204.84C45.3421 205.133 45.1488 205.48 45.0155 205.88C44.8955 206.267 44.8355 206.693 44.8355 207.16V213H43.1355V202.66ZM56.0488 200.8H54.3488V198.72H56.0488V200.8ZM54.3488 202.66H56.0488V213H54.3488V202.66ZM59.7223 209.74C59.7357 210.113 59.8223 210.433 59.9823 210.7C60.1423 210.953 60.349 211.16 60.6023 211.32C60.869 211.467 61.1623 211.573 61.4823 211.64C61.8157 211.707 62.1557 211.74 62.5023 211.74C62.769 211.74 63.049 211.72 63.3423 211.68C63.6357 211.64 63.9023 211.567 64.1423 211.46C64.3957 211.353 64.6023 211.2 64.7623 211C64.9223 210.787 65.0023 210.52 65.0023 210.2C65.0023 209.76 64.8357 209.427 64.5023 209.2C64.169 208.973 63.749 208.793 63.2423 208.66C62.749 208.513 62.209 208.387 61.6223 208.28C61.0357 208.16 60.489 208 59.9823 207.8C59.489 207.587 59.0757 207.293 58.7423 206.92C58.409 206.547 58.2423 206.027 58.2423 205.36C58.2423 204.84 58.3557 204.393 58.5823 204.02C58.8223 203.647 59.1223 203.347 59.4823 203.12C59.8557 202.88 60.269 202.707 60.7223 202.6C61.189 202.48 61.649 202.42 62.1023 202.42C62.689 202.42 63.229 202.473 63.7223 202.58C64.2157 202.673 64.649 202.847 65.0223 203.1C65.409 203.34 65.7157 203.673 65.9423 204.1C66.169 204.513 66.3023 205.033 66.3423 205.66H64.6423C64.6157 205.327 64.529 205.053 64.3823 204.84C64.2357 204.613 64.049 204.433 63.8223 204.3C63.5957 204.167 63.3423 204.073 63.0623 204.02C62.7957 203.953 62.5223 203.92 62.2423 203.92C61.989 203.92 61.729 203.94 61.4623 203.98C61.209 204.02 60.9757 204.093 60.7623 204.2C60.549 204.293 60.3757 204.427 60.2423 204.6C60.109 204.76 60.0423 204.973 60.0423 205.24C60.0423 205.533 60.1423 205.78 60.3423 205.98C60.5557 206.167 60.8223 206.327 61.1423 206.46C61.4623 206.58 61.8223 206.687 62.2223 206.78C62.6223 206.86 63.0223 206.947 63.4223 207.04C63.849 207.133 64.2623 207.247 64.6623 207.38C65.0757 207.513 65.4357 207.693 65.7423 207.92C66.0623 208.133 66.3157 208.407 66.5023 208.74C66.7023 209.073 66.8023 209.487 66.8023 209.98C66.8023 210.607 66.669 211.127 66.4023 211.54C66.149 211.953 65.809 212.287 65.3823 212.54C64.969 212.793 64.4957 212.967 63.9623 213.06C63.4423 213.167 62.9223 213.22 62.4023 213.22C61.829 213.22 61.2823 213.16 60.7623 213.04C60.2423 212.92 59.7823 212.727 59.3823 212.46C58.9823 212.18 58.6623 211.82 58.4223 211.38C58.1823 210.927 58.049 210.38 58.0223 209.74H59.7223ZM71.0423 202.66H73.1023V204.16H71.0423V210.58C71.0423 210.78 71.0557 210.94 71.0823 211.06C71.1223 211.18 71.189 211.273 71.2823 211.34C71.3757 211.407 71.5023 211.453 71.6623 211.48C71.8357 211.493 72.0557 211.5 72.3223 211.5H73.1023V213H71.8023C71.3623 213 70.9823 212.973 70.6623 212.92C70.3557 212.853 70.1023 212.74 69.9023 212.58C69.7157 212.42 69.5757 212.193 69.4823 211.9C69.389 211.607 69.3423 211.22 69.3423 210.74V204.16H67.5823V202.66H69.3423V199.56H71.0423V202.66ZM74.9309 202.66H76.5309V204.84H76.5709C76.9843 204 77.4909 203.38 78.0909 202.98C78.6909 202.58 79.4509 202.393 80.3709 202.42V204.22C79.6909 204.22 79.1109 204.313 78.6309 204.5C78.1509 204.687 77.7643 204.96 77.4709 205.32C77.1776 205.68 76.9643 206.12 76.8309 206.64C76.6976 207.147 76.6309 207.733 76.6309 208.4V213H74.9309V202.66ZM82.5395 207.84C82.5395 208.467 82.6195 209.027 82.7795 209.52C82.9529 210 83.1862 210.407 83.4795 210.74C83.7729 211.06 84.1129 211.307 84.4995 211.48C84.8995 211.653 85.3195 211.74 85.7595 211.74C86.1995 211.74 86.6129 211.653 86.9995 211.48C87.3995 211.307 87.7462 211.06 88.0395 210.74C88.3329 210.407 88.5595 210 88.7195 209.52C88.8929 209.027 88.9795 208.467 88.9795 207.84C88.9795 207.213 88.8929 206.66 88.7195 206.18C88.5595 205.687 88.3329 205.273 88.0395 204.94C87.7462 204.607 87.3995 204.353 86.9995 204.18C86.6129 204.007 86.1995 203.92 85.7595 203.92C85.3195 203.92 84.8995 204.007 84.4995 204.18C84.1129 204.353 83.7729 204.607 83.4795 204.94C83.1862 205.273 82.9529 205.687 82.7795 206.18C82.6195 206.66 82.5395 207.213 82.5395 207.84ZM80.7395 207.84C80.7395 207.08 80.8462 206.373 81.0595 205.72C81.2729 205.053 81.5929 204.48 82.0195 204C82.4462 203.507 82.9729 203.12 83.5995 202.84C84.2262 202.56 84.9462 202.42 85.7595 202.42C86.5862 202.42 87.3062 202.56 87.9195 202.84C88.5462 203.12 89.0729 203.507 89.4995 204C89.9262 204.48 90.2462 205.053 90.4595 205.72C90.6729 206.373 90.7795 207.08 90.7795 207.84C90.7795 208.6 90.6729 209.307 90.4595 209.96C90.2462 210.613 89.9262 211.187 89.4995 211.68C89.0729 212.16 88.5462 212.54 87.9195 212.82C87.3062 213.087 86.5862 213.22 85.7595 213.22C84.9462 213.22 84.2262 213.087 83.5995 212.82C82.9729 212.54 82.4462 212.16 82.0195 211.68C81.5929 211.187 81.2729 210.613 81.0595 209.96C80.8462 209.307 80.7395 208.6 80.7395 207.84ZM99.5903 207.92C99.5903 208.4 99.6503 208.873 99.7703 209.34C99.9036 209.793 100.097 210.2 100.35 210.56C100.617 210.92 100.95 211.207 101.35 211.42C101.764 211.633 102.244 211.74 102.79 211.74C103.364 211.74 103.85 211.627 104.25 211.4C104.65 211.173 104.977 210.88 105.23 210.52C105.484 210.147 105.664 209.727 105.77 209.26C105.89 208.793 105.95 208.32 105.95 207.84C105.95 207.333 105.89 206.847 105.77 206.38C105.65 205.9 105.457 205.48 105.19 205.12C104.937 204.76 104.604 204.473 104.19 204.26C103.777 204.033 103.277 203.92 102.69 203.92C102.117 203.92 101.63 204.033 101.23 204.26C100.83 204.487 100.51 204.787 100.27 205.16C100.03 205.533 99.857 205.96 99.7503 206.44C99.6436 206.92 99.5903 207.413 99.5903 207.92ZM107.59 213H105.89V211.6H105.85C105.57 212.173 105.13 212.587 104.53 212.84C103.93 213.093 103.27 213.22 102.55 213.22C101.75 213.22 101.05 213.073 100.45 212.78C99.8636 212.487 99.3703 212.093 98.9703 211.6C98.5836 211.107 98.2903 210.533 98.0903 209.88C97.8903 209.227 97.7903 208.533 97.7903 207.8C97.7903 207.067 97.8836 206.373 98.0703 205.72C98.2703 205.067 98.5636 204.5 98.9503 204.02C99.3503 203.527 99.8436 203.14 100.43 202.86C101.03 202.567 101.724 202.42 102.51 202.42C102.777 202.42 103.064 202.447 103.37 202.5C103.677 202.553 103.984 202.647 104.29 202.78C104.597 202.9 104.884 203.067 105.15 203.28C105.43 203.48 105.664 203.733 105.85 204.04H105.89V198.72H107.59V213ZM117.386 206.84C117.359 206.44 117.266 206.06 117.106 205.7C116.959 205.34 116.752 205.033 116.486 204.78C116.232 204.513 115.926 204.307 115.566 204.16C115.219 204 114.832 203.92 114.406 203.92C113.966 203.92 113.566 204 113.206 204.16C112.859 204.307 112.559 204.513 112.306 204.78C112.052 205.047 111.852 205.36 111.706 205.72C111.559 206.067 111.472 206.44 111.446 206.84H117.386ZM119.026 209.72C118.799 210.88 118.299 211.753 117.526 212.34C116.752 212.927 115.779 213.22 114.606 213.22C113.779 213.22 113.059 213.087 112.446 212.82C111.846 212.553 111.339 212.18 110.926 211.7C110.512 211.22 110.199 210.647 109.986 209.98C109.786 209.313 109.672 208.587 109.646 207.8C109.646 207.013 109.766 206.293 110.006 205.64C110.246 204.987 110.579 204.42 111.006 203.94C111.446 203.46 111.959 203.087 112.546 202.82C113.146 202.553 113.799 202.42 114.506 202.42C115.426 202.42 116.186 202.613 116.786 203C117.399 203.373 117.886 203.853 118.246 204.44C118.619 205.027 118.872 205.667 119.006 206.36C119.152 207.053 119.212 207.713 119.186 208.34H111.446C111.432 208.793 111.486 209.227 111.606 209.64C111.726 210.04 111.919 210.4 112.186 210.72C112.452 211.027 112.792 211.273 113.206 211.46C113.619 211.647 114.106 211.74 114.666 211.74C115.386 211.74 115.972 211.573 116.426 211.24C116.892 210.907 117.199 210.4 117.346 209.72H119.026ZM121.048 198.72H122.748V213H121.048V198.72ZM125.482 198.72H127.182V213H125.482V198.72ZM130.195 198.72H132.415V200.94C132.415 201.34 132.368 201.72 132.275 202.08C132.195 202.427 132.062 202.733 131.875 203C131.702 203.267 131.475 203.48 131.195 203.64C130.928 203.8 130.602 203.88 130.215 203.88V202.88C130.442 202.88 130.628 202.827 130.775 202.72C130.922 202.6 131.042 202.447 131.135 202.26C131.228 202.073 131.288 201.867 131.315 201.64C131.355 201.4 131.375 201.167 131.375 200.94H130.195V198.72ZM135.662 198.72H145.522V200.32H137.562V204.86H144.982V206.46H137.562V211.4H145.582V213H135.662V198.72ZM147.608 202.66H149.208V204.3H149.248C149.955 203.047 151.075 202.42 152.608 202.42C153.288 202.42 153.855 202.513 154.308 202.7C154.761 202.887 155.128 203.147 155.408 203.48C155.688 203.813 155.881 204.213 155.988 204.68C156.108 205.133 156.168 205.64 156.168 206.2V213H154.468V206C154.468 205.36 154.281 204.853 153.908 204.48C153.535 204.107 153.021 203.92 152.368 203.92C151.848 203.92 151.395 204 151.008 204.16C150.635 204.32 150.321 204.547 150.068 204.84C149.815 205.133 149.621 205.48 149.488 205.88C149.368 206.267 149.308 206.693 149.308 207.16V213H147.608V202.66ZM165.901 206.84C165.875 206.44 165.781 206.06 165.621 205.7C165.475 205.34 165.268 205.033 165.001 204.78C164.748 204.513 164.441 204.307 164.081 204.16C163.735 204 163.348 203.92 162.921 203.92C162.481 203.92 162.081 204 161.721 204.16C161.375 204.307 161.075 204.513 160.821 204.78C160.568 205.047 160.368 205.36 160.221 205.72C160.075 206.067 159.988 206.44 159.961 206.84H165.901ZM167.541 209.72C167.315 210.88 166.815 211.753 166.041 212.34C165.268 212.927 164.295 213.22 163.121 213.22C162.295 213.22 161.575 213.087 160.961 212.82C160.361 212.553 159.855 212.18 159.441 211.7C159.028 211.22 158.715 210.647 158.501 209.98C158.301 209.313 158.188 208.587 158.161 207.8C158.161 207.013 158.281 206.293 158.521 205.64C158.761 204.987 159.095 204.42 159.521 203.94C159.961 203.46 160.475 203.087 161.061 202.82C161.661 202.553 162.315 202.42 163.021 202.42C163.941 202.42 164.701 202.613 165.301 203C165.915 203.373 166.401 203.853 166.761 204.44C167.135 205.027 167.388 205.667 167.521 206.36C167.668 207.053 167.728 207.713 167.701 208.34H159.961C159.948 208.793 160.001 209.227 160.121 209.64C160.241 210.04 160.435 210.4 160.701 210.72C160.968 211.027 161.308 211.273 161.721 211.46C162.135 211.647 162.621 211.74 163.181 211.74C163.901 211.74 164.488 211.573 164.941 211.24C165.408 210.907 165.715 210.4 165.861 209.72H167.541ZM169.404 202.66H171.004V204.84H171.044C171.457 204 171.964 203.38 172.564 202.98C173.164 202.58 173.924 202.393 174.844 202.42V204.22C174.164 204.22 173.584 204.313 173.104 204.5C172.624 204.687 172.237 204.96 171.944 205.32C171.65 205.68 171.437 206.12 171.304 206.64C171.17 207.147 171.104 207.733 171.104 208.4V213H169.404V202.66ZM184.477 212.12C184.477 213.813 184.091 215.08 183.317 215.92C182.544 216.76 181.331 217.18 179.677 217.18C179.197 217.18 178.704 217.127 178.197 217.02C177.704 216.913 177.251 216.74 176.837 216.5C176.437 216.26 176.104 215.947 175.837 215.56C175.571 215.173 175.424 214.7 175.397 214.14H177.097C177.111 214.447 177.204 214.707 177.377 214.92C177.564 215.133 177.784 215.307 178.037 215.44C178.304 215.573 178.591 215.667 178.897 215.72C179.204 215.787 179.497 215.82 179.777 215.82C180.337 215.82 180.811 215.72 181.197 215.52C181.584 215.333 181.904 215.067 182.157 214.72C182.411 214.387 182.591 213.98 182.697 213.5C182.817 213.02 182.877 212.493 182.877 211.92V211.24H182.837C182.544 211.88 182.097 212.353 181.497 212.66C180.911 212.953 180.284 213.1 179.617 213.1C178.844 213.1 178.171 212.96 177.597 212.68C177.024 212.4 176.544 212.027 176.157 211.56C175.771 211.08 175.477 210.527 175.277 209.9C175.091 209.26 174.997 208.587 174.997 207.88C174.997 207.267 175.077 206.64 175.237 206C175.397 205.347 175.664 204.76 176.037 204.24C176.411 203.707 176.904 203.273 177.517 202.94C178.131 202.593 178.884 202.42 179.777 202.42C180.431 202.42 181.031 202.567 181.577 202.86C182.124 203.14 182.551 203.567 182.857 204.14H182.877V202.66H184.477V212.12ZM179.717 211.62C180.277 211.62 180.751 211.507 181.137 211.28C181.537 211.04 181.857 210.733 182.097 210.36C182.337 209.973 182.511 209.54 182.617 209.06C182.737 208.58 182.797 208.1 182.797 207.62C182.797 207.167 182.744 206.72 182.637 206.28C182.531 205.84 182.357 205.447 182.117 205.1C181.891 204.74 181.591 204.453 181.217 204.24C180.844 204.027 180.391 203.92 179.857 203.92C179.311 203.92 178.844 204.027 178.457 204.24C178.071 204.44 177.751 204.713 177.497 205.06C177.257 205.407 177.077 205.807 176.957 206.26C176.851 206.713 176.797 207.187 176.797 207.68C176.797 208.147 176.844 208.613 176.937 209.08C177.031 209.547 177.191 209.973 177.417 210.36C177.644 210.733 177.944 211.04 178.317 211.28C178.691 211.507 179.157 211.62 179.717 211.62ZM188.842 200.8H187.142V198.72H188.842V200.8ZM187.142 202.66H188.842V213H187.142V202.66ZM200.635 212.96C200.342 213.133 199.935 213.22 199.415 213.22C198.975 213.22 198.622 213.1 198.355 212.86C198.102 212.607 197.975 212.2 197.975 211.64C197.509 212.2 196.962 212.607 196.335 212.86C195.722 213.1 195.055 213.22 194.335 213.22C193.869 213.22 193.422 213.167 192.995 213.06C192.582 212.953 192.222 212.787 191.915 212.56C191.609 212.333 191.362 212.04 191.175 211.68C191.002 211.307 190.915 210.86 190.915 210.34C190.915 209.753 191.015 209.273 191.215 208.9C191.415 208.527 191.675 208.227 191.995 208C192.329 207.76 192.702 207.58 193.115 207.46C193.542 207.34 193.975 207.24 194.415 207.16C194.882 207.067 195.322 207 195.735 206.96C196.162 206.907 196.535 206.84 196.855 206.76C197.175 206.667 197.429 206.54 197.615 206.38C197.802 206.207 197.895 205.96 197.895 205.64C197.895 205.267 197.822 204.967 197.675 204.74C197.542 204.513 197.362 204.34 197.135 204.22C196.922 204.1 196.675 204.02 196.395 203.98C196.129 203.94 195.862 203.92 195.595 203.92C194.875 203.92 194.275 204.06 193.795 204.34C193.315 204.607 193.055 205.12 193.015 205.88H191.315C191.342 205.24 191.475 204.7 191.715 204.26C191.955 203.82 192.275 203.467 192.675 203.2C193.075 202.92 193.529 202.72 194.035 202.6C194.555 202.48 195.109 202.42 195.695 202.42C196.162 202.42 196.622 202.453 197.075 202.52C197.542 202.587 197.962 202.727 198.335 202.94C198.709 203.14 199.009 203.427 199.235 203.8C199.462 204.173 199.575 204.66 199.575 205.26V210.58C199.575 210.98 199.595 211.273 199.635 211.46C199.689 211.647 199.849 211.74 200.115 211.74C200.262 211.74 200.435 211.707 200.635 211.64V212.96ZM197.875 207.66C197.662 207.82 197.382 207.94 197.035 208.02C196.689 208.087 196.322 208.147 195.935 208.2C195.562 208.24 195.182 208.293 194.795 208.36C194.409 208.413 194.062 208.507 193.755 208.64C193.449 208.773 193.195 208.967 192.995 209.22C192.809 209.46 192.715 209.793 192.715 210.22C192.715 210.5 192.769 210.74 192.875 210.94C192.995 211.127 193.142 211.28 193.315 211.4C193.502 211.52 193.715 211.607 193.955 211.66C194.195 211.713 194.449 211.74 194.715 211.74C195.275 211.74 195.755 211.667 196.155 211.52C196.555 211.36 196.882 211.167 197.135 210.94C197.389 210.7 197.575 210.447 197.695 210.18C197.815 209.9 197.875 209.64 197.875 209.4V207.66Z" fill="#442000"/>
<path d="M15 230H375V228H15V230ZM375 299H15V301H375V299Z" fill="#442000"/>
<path d="M24.52 250.44H26.96C27.32 250.44 27.6667 250.413 28 250.36C28.3333 250.307 28.6267 250.207 28.88 250.06C29.1333 249.9 29.3333 249.68 29.48 249.4C29.64 249.12 29.72 248.753 29.72 248.3C29.72 247.847 29.64 247.48 29.48 247.2C29.3333 246.92 29.1333 246.707 28.88 246.56C28.6267 246.4 28.3333 246.293 28 246.24C27.6667 246.187 27.32 246.16 26.96 246.16H24.52V250.44ZM21.38 243.72H27.82C28.7133 243.72 29.4733 243.853 30.1 244.12C30.7267 244.373 31.2333 244.713 31.62 245.14C32.02 245.567 32.3067 246.053 32.48 246.6C32.6667 247.147 32.76 247.713 32.76 248.3C32.76 248.873 32.6667 249.44 32.48 250C32.3067 250.547 32.02 251.033 31.62 251.46C31.2333 251.887 30.7267 252.233 30.1 252.5C29.4733 252.753 28.7133 252.88 27.82 252.88H24.52V258H21.38V243.72ZM34.7198 243.72H37.8598V255.36H44.8198V258H34.7198V243.72ZM50.1753 252.48H53.8753L52.0753 247.24H52.0353L50.1753 252.48ZM50.4753 243.72H53.6953L59.0353 258H55.7753L54.6953 254.82H49.3553L48.2353 258H45.0753L50.4753 243.72ZM62.4823 252.44L57.2423 243.72H60.7623L64.1023 249.36L67.4223 243.72H70.9223L65.6223 252.52V258H62.4823V252.44ZM72.1222 243.72H82.8022V246.36H75.2622V249.42H82.1822V251.86H75.2622V255.36H82.9622V258H72.1222V243.72ZM88.2309 250.18H91.6709C92.3909 250.18 92.9309 250.02 93.2909 249.7C93.6509 249.38 93.8309 248.86 93.8309 248.14C93.8309 247.447 93.6509 246.947 93.2909 246.64C92.9309 246.32 92.3909 246.16 91.6709 246.16H88.2309V250.18ZM85.0909 243.72H92.7909C93.4309 243.72 94.0043 243.827 94.5109 244.04C95.0309 244.24 95.4709 244.52 95.8309 244.88C96.2043 245.24 96.4843 245.66 96.6709 246.14C96.8709 246.607 96.9709 247.113 96.9709 247.66C96.9709 248.5 96.7909 249.227 96.4309 249.84C96.0843 250.453 95.5109 250.92 94.7109 251.24V251.28C95.0976 251.387 95.4176 251.553 95.6709 251.78C95.9243 251.993 96.1309 252.253 96.2909 252.56C96.4509 252.853 96.5643 253.18 96.6309 253.54C96.7109 253.9 96.7643 254.26 96.7909 254.62C96.8043 254.847 96.8176 255.113 96.8309 255.42C96.8443 255.727 96.8643 256.04 96.8909 256.36C96.9309 256.68 96.9843 256.987 97.0509 257.28C97.1309 257.56 97.2443 257.8 97.3909 258H94.2509C94.0776 257.547 93.9709 257.007 93.9309 256.38C93.8909 255.753 93.8309 255.153 93.7509 254.58C93.6443 253.833 93.4176 253.287 93.0709 252.94C92.7243 252.593 92.1576 252.42 91.3709 252.42H88.2309V258H85.0909V243.72ZM104.451 249.38C104.424 248.58 104.518 247.84 104.731 247.16C104.944 246.467 105.264 245.867 105.691 245.36C106.118 244.84 106.651 244.44 107.291 244.16C107.944 243.867 108.691 243.72 109.531 243.72C110.171 243.72 110.778 243.82 111.351 244.02C111.938 244.22 112.451 244.507 112.891 244.88C113.331 245.253 113.678 245.713 113.931 246.26C114.198 246.807 114.331 247.42 114.331 248.1C114.331 248.807 114.218 249.413 113.991 249.92C113.764 250.427 113.464 250.88 113.091 251.28C112.718 251.667 112.291 252.02 111.811 252.34C111.344 252.66 110.871 252.98 110.391 253.3C109.911 253.607 109.444 253.94 108.991 254.3C108.538 254.66 108.138 255.08 107.791 255.56H114.411V258H104.131C104.131 257.187 104.244 256.48 104.471 255.88C104.711 255.28 105.031 254.747 105.431 254.28C105.831 253.8 106.298 253.36 106.831 252.96C107.378 252.56 107.951 252.153 108.551 251.74C108.858 251.527 109.184 251.313 109.531 251.1C109.878 250.873 110.191 250.627 110.471 250.36C110.764 250.093 111.004 249.793 111.191 249.46C111.391 249.127 111.491 248.747 111.491 248.32C111.491 247.64 111.291 247.113 110.891 246.74C110.504 246.353 110.004 246.16 109.391 246.16C108.978 246.16 108.624 246.26 108.331 246.46C108.051 246.647 107.824 246.9 107.651 247.22C107.478 247.527 107.351 247.873 107.271 248.26C107.204 248.633 107.171 249.007 107.171 249.38H104.451Z" fill="#ECD2BB"/>
<path d="M31.6 274.02C31.3867 273.007 30.9133 272.247 30.18 271.74C29.46 271.233 28.6 270.98 27.6 270.98C26.7467 270.98 26.0133 271.14 25.4 271.46C24.8 271.78 24.3 272.213 23.9 272.76C23.5133 273.293 23.2267 273.907 23.04 274.6C22.8533 275.293 22.76 276.013 22.76 276.76C22.76 277.573 22.8533 278.347 23.04 279.08C23.2267 279.8 23.5133 280.433 23.9 280.98C24.3 281.513 24.8067 281.94 25.42 282.26C26.0333 282.58 26.7667 282.74 27.62 282.74C28.2467 282.74 28.8 282.64 29.28 282.44C29.7733 282.227 30.1933 281.94 30.54 281.58C30.9 281.207 31.18 280.767 31.38 280.26C31.58 279.753 31.7 279.207 31.74 278.62H33.64C33.4533 280.42 32.8333 281.82 31.78 282.82C30.7267 283.82 29.2867 284.32 27.46 284.32C26.3533 284.32 25.3867 284.133 24.56 283.76C23.7333 283.373 23.0467 282.847 22.5 282.18C21.9533 281.513 21.54 280.727 21.26 279.82C20.9933 278.913 20.86 277.94 20.86 276.9C20.86 275.86 21.0067 274.887 21.3 273.98C21.5933 273.06 22.02 272.26 22.58 271.58C23.1533 270.9 23.86 270.367 24.7 269.98C25.5533 269.58 26.5267 269.38 27.62 269.38C28.3667 269.38 29.0733 269.48 29.74 269.68C30.4067 269.88 31 270.173 31.52 270.56C32.04 270.947 32.4733 271.433 32.82 272.02C33.1667 272.593 33.3933 273.26 33.5 274.02H31.6ZM36.9536 278.84C36.9536 279.467 37.0336 280.027 37.1936 280.52C37.3669 281 37.6003 281.407 37.8936 281.74C38.1869 282.06 38.5269 282.307 38.9136 282.48C39.3136 282.653 39.7336 282.74 40.1736 282.74C40.6136 282.74 41.0269 282.653 41.4136 282.48C41.8136 282.307 42.1603 282.06 42.4536 281.74C42.7469 281.407 42.9736 281 43.1336 280.52C43.3069 280.027 43.3936 279.467 43.3936 278.84C43.3936 278.213 43.3069 277.66 43.1336 277.18C42.9736 276.687 42.7469 276.273 42.4536 275.94C42.1603 275.607 41.8136 275.353 41.4136 275.18C41.0269 275.007 40.6136 274.92 40.1736 274.92C39.7336 274.92 39.3136 275.007 38.9136 275.18C38.5269 275.353 38.1869 275.607 37.8936 275.94C37.6003 276.273 37.3669 276.687 37.1936 277.18C37.0336 277.66 36.9536 278.213 36.9536 278.84ZM35.1536 278.84C35.1536 278.08 35.2603 277.373 35.4736 276.72C35.6869 276.053 36.0069 275.48 36.4336 275C36.8603 274.507 37.3869 274.12 38.0136 273.84C38.6403 273.56 39.3603 273.42 40.1736 273.42C41.0003 273.42 41.7203 273.56 42.3336 273.84C42.9603 274.12 43.4869 274.507 43.9136 275C44.3403 275.48 44.6603 276.053 44.8736 276.72C45.0869 277.373 45.1936 278.08 45.1936 278.84C45.1936 279.6 45.0869 280.307 44.8736 280.96C44.6603 281.613 44.3403 282.187 43.9136 282.68C43.4869 283.16 42.9603 283.54 42.3336 283.82C41.7203 284.087 41.0003 284.22 40.1736 284.22C39.3603 284.22 38.6403 284.087 38.0136 283.82C37.3869 283.54 36.8603 283.16 36.4336 282.68C36.0069 282.187 35.6869 281.613 35.4736 280.96C35.2603 280.307 35.1536 279.6 35.1536 278.84ZM47.198 273.66H48.798V275.3H48.838C49.5446 274.047 50.6646 273.42 52.198 273.42C52.878 273.42 53.4446 273.513 53.898 273.7C54.3513 273.887 54.718 274.147 54.998 274.48C55.278 274.813 55.4713 275.213 55.578 275.68C55.698 276.133 55.758 276.64 55.758 277.2V284H54.058V277C54.058 276.36 53.8713 275.853 53.498 275.48C53.1246 275.107 52.6113 274.92 51.958 274.92C51.438 274.92 50.9846 275 50.598 275.16C50.2246 275.32 49.9113 275.547 49.658 275.84C49.4046 276.133 49.2113 276.48 49.078 276.88C48.958 277.267 48.898 277.693 48.898 278.16V284H47.198V273.66ZM59.3513 280.74C59.3646 281.113 59.4513 281.433 59.6113 281.7C59.7713 281.953 59.9779 282.16 60.2313 282.32C60.4979 282.467 60.7913 282.573 61.1113 282.64C61.4446 282.707 61.7846 282.74 62.1313 282.74C62.3979 282.74 62.6779 282.72 62.9713 282.68C63.2646 282.64 63.5313 282.567 63.7713 282.46C64.0246 282.353 64.2313 282.2 64.3913 282C64.5513 281.787 64.6313 281.52 64.6313 281.2C64.6313 280.76 64.4646 280.427 64.1313 280.2C63.7979 279.973 63.3779 279.793 62.8713 279.66C62.3779 279.513 61.8379 279.387 61.2513 279.28C60.6646 279.16 60.1179 279 59.6113 278.8C59.1179 278.587 58.7046 278.293 58.3713 277.92C58.0379 277.547 57.8713 277.027 57.8713 276.36C57.8713 275.84 57.9846 275.393 58.2113 275.02C58.4513 274.647 58.7513 274.347 59.1113 274.12C59.4846 273.88 59.8979 273.707 60.3513 273.6C60.8179 273.48 61.2779 273.42 61.7313 273.42C62.3179 273.42 62.8579 273.473 63.3513 273.58C63.8446 273.673 64.2779 273.847 64.6513 274.1C65.0379 274.34 65.3446 274.673 65.5713 275.1C65.7979 275.513 65.9313 276.033 65.9713 276.66H64.2713C64.2446 276.327 64.1579 276.053 64.0113 275.84C63.8646 275.613 63.6779 275.433 63.4513 275.3C63.2246 275.167 62.9713 275.073 62.6913 275.02C62.4246 274.953 62.1513 274.92 61.8713 274.92C61.6179 274.92 61.3579 274.94 61.0913 274.98C60.8379 275.02 60.6046 275.093 60.3913 275.2C60.1779 275.293 60.0046 275.427 59.8713 275.6C59.7379 275.76 59.6712 275.973 59.6712 276.24C59.6712 276.533 59.7712 276.78 59.9712 276.98C60.1846 277.167 60.4513 277.327 60.7713 277.46C61.0913 277.58 61.4513 277.687 61.8513 277.78C62.2513 277.86 62.6513 277.947 63.0513 278.04C63.4779 278.133 63.8913 278.247 64.2913 278.38C64.7046 278.513 65.0646 278.693 65.3713 278.92C65.6913 279.133 65.9446 279.407 66.1313 279.74C66.3313 280.073 66.4313 280.487 66.4313 280.98C66.4313 281.607 66.2979 282.127 66.0313 282.54C65.7779 282.953 65.4379 283.287 65.0113 283.54C64.5979 283.793 64.1246 283.967 63.5913 284.06C63.0713 284.167 62.5513 284.22 62.0312 284.22C61.4579 284.22 60.9113 284.16 60.3913 284.04C59.8713 283.92 59.4113 283.727 59.0113 283.46C58.6113 283.18 58.2913 282.82 58.0513 282.38C57.8113 281.927 57.6779 281.38 57.6513 280.74H59.3513ZM70.1113 271.8H68.4113V269.72H70.1113V271.8ZM68.4113 273.66H70.1113V284H68.4113V273.66ZM81.6648 283.12C81.6648 284.813 81.2782 286.08 80.5048 286.92C79.7315 287.76 78.5182 288.18 76.8648 288.18C76.3848 288.18 75.8915 288.127 75.3848 288.02C74.8915 287.913 74.4382 287.74 74.0248 287.5C73.6248 287.26 73.2915 286.947 73.0248 286.56C72.7582 286.173 72.6115 285.7 72.5848 285.14H74.2848C74.2982 285.447 74.3915 285.707 74.5648 285.92C74.7515 286.133 74.9715 286.307 75.2248 286.44C75.4915 286.573 75.7782 286.667 76.0848 286.72C76.3915 286.787 76.6848 286.82 76.9648 286.82C77.5248 286.82 77.9982 286.72 78.3848 286.52C78.7715 286.333 79.0915 286.067 79.3448 285.72C79.5982 285.387 79.7782 284.98 79.8848 284.5C80.0048 284.02 80.0648 283.493 80.0648 282.92V282.24H80.0248C79.7315 282.88 79.2848 283.353 78.6848 283.66C78.0982 283.953 77.4715 284.1 76.8048 284.1C76.0315 284.1 75.3582 283.96 74.7848 283.68C74.2115 283.4 73.7315 283.027 73.3448 282.56C72.9582 282.08 72.6648 281.527 72.4648 280.9C72.2782 280.26 72.1848 279.587 72.1848 278.88C72.1848 278.267 72.2648 277.64 72.4248 277C72.5848 276.347 72.8515 275.76 73.2248 275.24C73.5982 274.707 74.0915 274.273 74.7048 273.94C75.3182 273.593 76.0715 273.42 76.9648 273.42C77.6182 273.42 78.2182 273.567 78.7648 273.86C79.3115 274.14 79.7382 274.567 80.0448 275.14H80.0648V273.66H81.6648V283.12ZM76.9048 282.62C77.4648 282.62 77.9382 282.507 78.3248 282.28C78.7248 282.04 79.0448 281.733 79.2848 281.36C79.5248 280.973 79.6982 280.54 79.8048 280.06C79.9248 279.58 79.9848 279.1 79.9848 278.62C79.9848 278.167 79.9315 277.72 79.8248 277.28C79.7182 276.84 79.5448 276.447 79.3048 276.1C79.0782 275.74 78.7782 275.453 78.4048 275.24C78.0315 275.027 77.5782 274.92 77.0448 274.92C76.4982 274.92 76.0315 275.027 75.6448 275.24C75.2582 275.44 74.9382 275.713 74.6848 276.06C74.4448 276.407 74.2648 276.807 74.1448 277.26C74.0382 277.713 73.9848 278.187 73.9848 278.68C73.9848 279.147 74.0315 279.613 74.1248 280.08C74.2182 280.547 74.3782 280.973 74.6048 281.36C74.8315 281.733 75.1315 282.04 75.5048 282.28C75.8782 282.507 76.3448 282.62 76.9048 282.62ZM84.3292 269.72H86.0292V284H84.3292V269.72ZM90.4628 271.8H88.7628V269.72H90.4628V271.8ZM88.7628 273.66H90.4628V284H88.7628V273.66ZM100.276 277.84C100.25 277.44 100.156 277.06 99.9964 276.7C99.8497 276.34 99.6431 276.033 99.3764 275.78C99.1231 275.513 98.8164 275.307 98.4564 275.16C98.1097 275 97.7231 274.92 97.2964 274.92C96.8564 274.92 96.4564 275 96.0964 275.16C95.7497 275.307 95.4497 275.513 95.1964 275.78C94.9431 276.047 94.7431 276.36 94.5964 276.72C94.4497 277.067 94.3631 277.44 94.3364 277.84H100.276ZM101.916 280.72C101.69 281.88 101.19 282.753 100.416 283.34C99.6431 283.927 98.6697 284.22 97.4964 284.22C96.6697 284.22 95.9497 284.087 95.3364 283.82C94.7364 283.553 94.2297 283.18 93.8164 282.7C93.4031 282.22 93.0897 281.647 92.8764 280.98C92.6764 280.313 92.5631 279.587 92.5364 278.8C92.5364 278.013 92.6564 277.293 92.8964 276.64C93.1364 275.987 93.4697 275.42 93.8964 274.94C94.3364 274.46 94.8497 274.087 95.4364 273.82C96.0364 273.553 96.6897 273.42 97.3964 273.42C98.3164 273.42 99.0764 273.613 99.6764 274C100.29 274.373 100.776 274.853 101.136 275.44C101.51 276.027 101.763 276.667 101.896 277.36C102.043 278.053 102.103 278.713 102.076 279.34H94.3364C94.3231 279.793 94.3764 280.227 94.4964 280.64C94.6164 281.04 94.8097 281.4 95.0764 281.72C95.3431 282.027 95.6831 282.273 96.0964 282.46C96.5097 282.647 96.9964 282.74 97.5564 282.74C98.2764 282.74 98.8631 282.573 99.3164 282.24C99.7831 281.907 100.09 281.4 100.236 280.72H101.916ZM103.779 273.66H105.379V275.84H105.419C105.832 275 106.339 274.38 106.939 273.98C107.539 273.58 108.299 273.393 109.219 273.42V275.22C108.539 275.22 107.959 275.313 107.479 275.5C106.999 275.687 106.612 275.96 106.319 276.32C106.025 276.68 105.812 277.12 105.679 277.64C105.545 278.147 105.479 278.733 105.479 279.4V284H103.779V273.66ZM117.327 277.84C117.301 277.44 117.207 277.06 117.047 276.7C116.901 276.34 116.694 276.033 116.427 275.78C116.174 275.513 115.867 275.307 115.507 275.16C115.161 275 114.774 274.92 114.347 274.92C113.907 274.92 113.507 275 113.147 275.16C112.801 275.307 112.501 275.513 112.247 275.78C111.994 276.047 111.794 276.36 111.647 276.72C111.501 277.067 111.414 277.44 111.387 277.84H117.327ZM118.967 280.72C118.741 281.88 118.241 282.753 117.467 283.34C116.694 283.927 115.721 284.22 114.547 284.22C113.721 284.22 113.001 284.087 112.387 283.82C111.787 283.553 111.281 283.18 110.867 282.7C110.454 282.22 110.141 281.647 109.927 280.98C109.727 280.313 109.614 279.587 109.587 278.8C109.587 278.013 109.707 277.293 109.947 276.64C110.187 275.987 110.521 275.42 110.947 274.94C111.387 274.46 111.901 274.087 112.487 273.82C113.087 273.553 113.741 273.42 114.447 273.42C115.367 273.42 116.127 273.613 116.727 274C117.341 274.373 117.827 274.853 118.187 275.44C118.561 276.027 118.814 276.667 118.947 277.36C119.094 278.053 119.154 278.713 119.127 279.34H111.387C111.374 279.793 111.427 280.227 111.547 280.64C111.667 281.04 111.861 281.4 112.127 281.72C112.394 282.027 112.734 282.273 113.147 282.46C113.561 282.647 114.047 282.74 114.607 282.74C115.327 282.74 115.914 282.573 116.367 282.24C116.834 281.907 117.141 281.4 117.287 280.72H118.967Z" fill="#442000"/>
<path d="M23.9 321.92C23.9 322.52 23.9667 323.107 24.1 323.68C24.2467 324.24 24.4733 324.747 24.78 325.2C25.0867 325.653 25.4867 326.02 25.98 326.3C26.4733 326.567 27.0733 326.7 27.78 326.7C28.4867 326.7 29.0867 326.567 29.58 326.3C30.0733 326.02 30.4733 325.653 30.78 325.2C31.0867 324.747 31.3067 324.24 31.44 323.68C31.5867 323.107 31.66 322.52 31.66 321.92C31.66 321.293 31.5867 320.687 31.44 320.1C31.3067 319.513 31.0867 318.993 30.78 318.54C30.4733 318.073 30.0733 317.707 29.58 317.44C29.0867 317.16 28.4867 317.02 27.78 317.02C27.0733 317.02 26.4733 317.16 25.98 317.44C25.4867 317.707 25.0867 318.073 24.78 318.54C24.4733 318.993 24.2467 319.513 24.1 320.1C23.9667 320.687 23.9 321.293 23.9 321.92ZM20.76 321.92C20.76 320.853 20.92 319.867 21.24 318.96C21.56 318.04 22.02 317.24 22.62 316.56C23.22 315.88 23.9533 315.347 24.82 314.96C25.7 314.573 26.6867 314.38 27.78 314.38C28.8867 314.38 29.8733 314.573 30.74 314.96C31.6067 315.347 32.34 315.88 32.94 316.56C33.54 317.24 34 318.04 34.32 318.96C34.64 319.867 34.8 320.853 34.8 321.92C34.8 322.96 34.64 323.933 34.32 324.84C34 325.733 33.54 326.513 32.94 327.18C32.34 327.847 31.6067 328.373 30.74 328.76C29.8733 329.133 28.8867 329.32 27.78 329.32C26.6867 329.32 25.7 329.133 24.82 328.76C23.9533 328.373 23.22 327.847 22.62 327.18C22.02 326.513 21.56 325.733 21.24 324.84C20.92 323.933 20.76 322.96 20.76 321.92ZM40.0864 320.5H43.2664C43.8264 320.5 44.2864 320.367 44.6464 320.1C45.0064 319.833 45.1864 319.4 45.1864 318.8C45.1864 318.467 45.1264 318.193 45.0064 317.98C44.8864 317.767 44.7264 317.6 44.5264 317.48C44.3264 317.36 44.0931 317.28 43.8264 317.24C43.5731 317.187 43.3064 317.16 43.0264 317.16H40.0864V320.5ZM36.9464 314.72H43.6664C44.3464 314.72 44.9664 314.78 45.5264 314.9C46.0864 315.02 46.5664 315.22 46.9664 315.5C47.3664 315.767 47.6731 316.127 47.8864 316.58C48.1131 317.033 48.2264 317.593 48.2264 318.26C48.2264 318.98 48.0597 319.58 47.7264 320.06C47.4064 320.54 46.9264 320.933 46.2864 321.24C47.1664 321.493 47.8197 321.94 48.2464 322.58C48.6864 323.207 48.9064 323.967 48.9064 324.86C48.9064 325.58 48.7664 326.207 48.4864 326.74C48.2064 327.26 47.8264 327.687 47.3464 328.02C46.8797 328.353 46.3397 328.6 45.7264 328.76C45.1264 328.92 44.5064 329 43.8664 329H36.9464V314.72ZM40.0864 326.56H43.4464C43.7531 326.56 44.0464 326.533 44.3264 326.48C44.6064 326.413 44.8531 326.313 45.0664 326.18C45.2797 326.033 45.4464 325.84 45.5664 325.6C45.6997 325.36 45.7664 325.053 45.7664 324.68C45.7664 323.947 45.5597 323.427 45.1464 323.12C44.7331 322.8 44.1864 322.64 43.5064 322.64H40.0864V326.56ZM51.0284 314.72H54.1684V329H51.0284V314.72ZM56.9269 314.72H67.6069V317.36H60.0669V320.42H66.9869V322.86H60.0669V326.36H67.7669V329H56.9269V314.72ZM73.0556 317.36H68.7756V314.72H80.4756V317.36H76.1956V329H73.0556V317.36ZM85.2822 317.36H81.0022V314.72H92.7022V317.36H88.4222V329H85.2822V317.36ZM94.3488 314.72H97.4888V329H94.3488V314.72ZM106.887 329H103.347L98.7272 314.72H101.947L105.127 324.76H105.167L108.387 314.72H111.627L106.887 329ZM115.365 321.92C115.365 322.52 115.432 323.107 115.565 323.68C115.712 324.24 115.938 324.747 116.245 325.2C116.552 325.653 116.952 326.02 117.445 326.3C117.938 326.567 118.538 326.7 119.245 326.7C119.952 326.7 120.552 326.567 121.045 326.3C121.538 326.02 121.938 325.653 122.245 325.2C122.552 324.747 122.772 324.24 122.905 323.68C123.052 323.107 123.125 322.52 123.125 321.92C123.125 321.293 123.052 320.687 122.905 320.1C122.772 319.513 122.552 318.993 122.245 318.54C121.938 318.073 121.538 317.707 121.045 317.44C120.552 317.16 119.952 317.02 119.245 317.02C118.538 317.02 117.938 317.16 117.445 317.44C116.952 317.707 116.552 318.073 116.245 318.54C115.938 318.993 115.712 319.513 115.565 320.1C115.432 320.687 115.365 321.293 115.365 321.92ZM112.225 321.92C112.225 320.853 112.385 319.867 112.705 318.96C113.025 318.04 113.485 317.24 114.085 316.56C114.685 315.88 115.418 315.347 116.285 314.96C117.165 314.573 118.152 314.38 119.245 314.38C120.352 314.38 121.338 314.573 122.205 314.96C123.072 315.347 123.805 315.88 124.405 316.56C125.005 317.24 125.465 318.04 125.785 318.96C126.105 319.867 126.265 320.853 126.265 321.92C126.265 322.96 126.105 323.933 125.785 324.84C125.465 325.733 125.005 326.513 124.405 327.18C123.805 327.847 123.072 328.373 122.205 328.76C121.338 329.133 120.352 329.32 119.245 329.32C118.152 329.32 117.165 329.133 116.285 328.76C115.418 328.373 114.685 327.847 114.085 327.18C113.485 326.513 113.025 325.733 112.705 324.84C112.385 323.933 112.225 322.96 112.225 321.92Z" fill="#ECD2BB"/>
<path d="M29.82 345.9C29.7133 344.873 29.34 344.133 28.7 343.68C28.0733 343.213 27.2667 342.98 26.28 342.98C25.88 342.98 25.4867 343.02 25.1 343.1C24.7133 343.18 24.3667 343.313 24.06 343.5C23.7667 343.687 23.5267 343.94 23.34 344.26C23.1667 344.567 23.08 344.953 23.08 345.42C23.08 345.86 23.2067 346.22 23.46 346.5C23.7267 346.767 24.0733 346.987 24.5 347.16C24.94 347.333 25.4333 347.48 25.98 347.6C26.5267 347.707 27.08 347.827 27.64 347.96C28.2133 348.093 28.7733 348.253 29.32 348.44C29.8667 348.613 30.3533 348.853 30.78 349.16C31.22 349.467 31.5667 349.853 31.82 350.32C32.0867 350.787 32.22 351.373 32.22 352.08C32.22 352.84 32.0467 353.493 31.7 354.04C31.3667 354.573 30.9333 355.013 30.4 355.36C29.8667 355.693 29.2667 355.933 28.6 356.08C27.9467 356.24 27.2933 356.32 26.64 356.32C25.84 356.32 25.08 356.22 24.36 356.02C23.6533 355.82 23.0267 355.52 22.48 355.12C21.9467 354.707 21.52 354.187 21.2 353.56C20.8933 352.92 20.74 352.167 20.74 351.3H22.54C22.54 351.9 22.6533 352.42 22.88 352.86C23.12 353.287 23.4267 353.64 23.8 353.92C24.1867 354.2 24.6333 354.407 25.14 354.54C25.6467 354.673 26.1667 354.74 26.7 354.74C27.1267 354.74 27.5533 354.7 27.98 354.62C28.42 354.54 28.8133 354.407 29.16 354.22C29.5067 354.02 29.7867 353.753 30 353.42C30.2133 353.087 30.32 352.66 30.32 352.14C30.32 351.647 30.1867 351.247 29.92 350.94C29.6667 350.633 29.32 350.387 28.88 350.2C28.4533 350 27.9667 349.84 27.42 349.72C26.8733 349.6 26.3133 349.48 25.74 349.36C25.18 349.227 24.6267 349.08 24.08 348.92C23.5333 348.747 23.04 348.527 22.6 348.26C22.1733 347.98 21.8267 347.627 21.56 347.2C21.3067 346.76 21.18 346.213 21.18 345.56C21.18 344.84 21.3267 344.22 21.62 343.7C21.9133 343.167 22.3 342.733 22.78 342.4C23.2733 342.053 23.8267 341.8 24.44 341.64C25.0667 341.467 25.7067 341.38 26.36 341.38C27.0933 341.38 27.7733 341.467 28.4 341.64C29.0267 341.813 29.5733 342.087 30.04 342.46C30.52 342.833 30.8933 343.307 31.16 343.88C31.44 344.44 31.5933 345.113 31.62 345.9H29.82ZM43.4088 355.96C43.1154 356.133 42.7088 356.22 42.1888 356.22C41.7488 356.22 41.3954 356.1 41.1288 355.86C40.8754 355.607 40.7488 355.2 40.7488 354.64C40.2821 355.2 39.7354 355.607 39.1088 355.86C38.4954 356.1 37.8288 356.22 37.1088 356.22C36.6421 356.22 36.1954 356.167 35.7688 356.06C35.3554 355.953 34.9954 355.787 34.6888 355.56C34.3821 355.333 34.1354 355.04 33.9488 354.68C33.7754 354.307 33.6888 353.86 33.6888 353.34C33.6888 352.753 33.7888 352.273 33.9888 351.9C34.1888 351.527 34.4488 351.227 34.7688 351C35.1021 350.76 35.4754 350.58 35.8888 350.46C36.3154 350.34 36.7488 350.24 37.1888 350.16C37.6554 350.067 38.0954 350 38.5088 349.96C38.9354 349.907 39.3088 349.84 39.6288 349.76C39.9488 349.667 40.2021 349.54 40.3888 349.38C40.5754 349.207 40.6688 348.96 40.6688 348.64C40.6688 348.267 40.5954 347.967 40.4488 347.74C40.3154 347.513 40.1354 347.34 39.9088 347.22C39.6954 347.1 39.4488 347.02 39.1688 346.98C38.9021 346.94 38.6354 346.92 38.3688 346.92C37.6488 346.92 37.0488 347.06 36.5688 347.34C36.0888 347.607 35.8288 348.12 35.7888 348.88H34.0888C34.1154 348.24 34.2488 347.7 34.4888 347.26C34.7288 346.82 35.0488 346.467 35.4488 346.2C35.8488 345.92 36.3021 345.72 36.8088 345.6C37.3288 345.48 37.8821 345.42 38.4688 345.42C38.9354 345.42 39.3954 345.453 39.8488 345.52C40.3154 345.587 40.7354 345.727 41.1088 345.94C41.4821 346.14 41.7821 346.427 42.0088 346.8C42.2354 347.173 42.3488 347.66 42.3488 348.26V353.58C42.3488 353.98 42.3688 354.273 42.4088 354.46C42.4621 354.647 42.6221 354.74 42.8888 354.74C43.0354 354.74 43.2088 354.707 43.4088 354.64V355.96ZM40.6488 350.66C40.4354 350.82 40.1554 350.94 39.8088 351.02C39.4621 351.087 39.0954 351.147 38.7088 351.2C38.3354 351.24 37.9554 351.293 37.5688 351.36C37.1821 351.413 36.8354 351.507 36.5288 351.64C36.2221 351.773 35.9688 351.967 35.7688 352.22C35.5821 352.46 35.4888 352.793 35.4888 353.22C35.4888 353.5 35.5421 353.74 35.6488 353.94C35.7688 354.127 35.9154 354.28 36.0888 354.4C36.2754 354.52 36.4888 354.607 36.7288 354.66C36.9688 354.713 37.2221 354.74 37.4888 354.74C38.0488 354.74 38.5288 354.667 38.9288 354.52C39.3288 354.36 39.6554 354.167 39.9088 353.94C40.1621 353.7 40.3488 353.447 40.4688 353.18C40.5888 352.9 40.6488 352.64 40.6488 352.4V350.66ZM45.0909 341.72H46.7909V356H45.0909V341.72ZM54.0845 356H52.2645L48.4245 345.66H50.3245L53.2245 354.28H53.2645L56.0845 345.66H57.8645L54.0845 356ZM68.5845 355.96C68.2912 356.133 67.8845 356.22 67.3645 356.22C66.9245 356.22 66.5712 356.1 66.3045 355.86C66.0512 355.607 65.9245 355.2 65.9245 354.64C65.4579 355.2 64.9112 355.607 64.2845 355.86C63.6712 356.1 63.0045 356.22 62.2845 356.22C61.8179 356.22 61.3712 356.167 60.9445 356.06C60.5312 355.953 60.1712 355.787 59.8645 355.56C59.5579 355.333 59.3112 355.04 59.1245 354.68C58.9512 354.307 58.8645 353.86 58.8645 353.34C58.8645 352.753 58.9645 352.273 59.1645 351.9C59.3645 351.527 59.6245 351.227 59.9445 351C60.2779 350.76 60.6512 350.58 61.0645 350.46C61.4912 350.34 61.9245 350.24 62.3645 350.16C62.8312 350.067 63.2712 350 63.6845 349.96C64.1112 349.907 64.4845 349.84 64.8045 349.76C65.1245 349.667 65.3779 349.54 65.5645 349.38C65.7512 349.207 65.8445 348.96 65.8445 348.64C65.8445 348.267 65.7712 347.967 65.6245 347.74C65.4912 347.513 65.3112 347.34 65.0845 347.22C64.8712 347.1 64.6245 347.02 64.3445 346.98C64.0779 346.94 63.8112 346.92 63.5445 346.92C62.8245 346.92 62.2245 347.06 61.7445 347.34C61.2645 347.607 61.0045 348.12 60.9645 348.88H59.2645C59.2912 348.24 59.4245 347.7 59.6645 347.26C59.9045 346.82 60.2245 346.467 60.6245 346.2C61.0245 345.92 61.4779 345.72 61.9845 345.6C62.5045 345.48 63.0579 345.42 63.6445 345.42C64.1112 345.42 64.5712 345.453 65.0245 345.52C65.4912 345.587 65.9112 345.727 66.2845 345.94C66.6579 346.14 66.9579 346.427 67.1845 346.8C67.4112 347.173 67.5245 347.66 67.5245 348.26V353.58C67.5245 353.98 67.5445 354.273 67.5845 354.46C67.6379 354.647 67.7979 354.74 68.0645 354.74C68.2112 354.74 68.3845 354.707 68.5845 354.64V355.96ZM65.8245 350.66C65.6112 350.82 65.3312 350.94 64.9845 351.02C64.6379 351.087 64.2712 351.147 63.8845 351.2C63.5112 351.24 63.1312 351.293 62.7445 351.36C62.3579 351.413 62.0112 351.507 61.7045 351.64C61.3979 351.773 61.1445 351.967 60.9445 352.22C60.7579 352.46 60.6645 352.793 60.6645 353.22C60.6645 353.5 60.7179 353.74 60.8245 353.94C60.9445 354.127 61.0912 354.28 61.2645 354.4C61.4512 354.52 61.6645 354.607 61.9045 354.66C62.1445 354.713 62.3979 354.74 62.6645 354.74C63.2245 354.74 63.7045 354.667 64.1045 354.52C64.5045 354.36 64.8312 354.167 65.0845 353.94C65.3379 353.7 65.5245 353.447 65.6445 353.18C65.7645 352.9 65.8245 352.64 65.8245 352.4V350.66ZM70.1067 345.66H71.7067V347.84H71.7467C72.1601 347 72.6667 346.38 73.2667 345.98C73.8667 345.58 74.6267 345.393 75.5467 345.42V347.22C74.8667 347.22 74.2867 347.313 73.8067 347.5C73.3267 347.687 72.9401 347.96 72.6467 348.32C72.3534 348.68 72.1401 349.12 72.0067 349.64C71.8734 350.147 71.8067 350.733 71.8067 351.4V356H70.1067V345.66ZM83.6553 349.84C83.6286 349.44 83.5353 349.06 83.3753 348.7C83.2286 348.34 83.022 348.033 82.7553 347.78C82.502 347.513 82.1953 347.307 81.8353 347.16C81.4886 347 81.102 346.92 80.6753 346.92C80.2353 346.92 79.8353 347 79.4753 347.16C79.1286 347.307 78.8286 347.513 78.5753 347.78C78.322 348.047 78.122 348.36 77.9753 348.72C77.8286 349.067 77.742 349.44 77.7153 349.84H83.6553ZM85.2953 352.72C85.0686 353.88 84.5686 354.753 83.7953 355.34C83.022 355.927 82.0486 356.22 80.8753 356.22C80.0486 356.22 79.3286 356.087 78.7153 355.82C78.1153 355.553 77.6086 355.18 77.1953 354.7C76.782 354.22 76.4686 353.647 76.2553 352.98C76.0553 352.313 75.942 351.587 75.9153 350.8C75.9153 350.013 76.0353 349.293 76.2753 348.64C76.5153 347.987 76.8486 347.42 77.2753 346.94C77.7153 346.46 78.2286 346.087 78.8153 345.82C79.4153 345.553 80.0686 345.42 80.7753 345.42C81.6953 345.42 82.4553 345.613 83.0553 346C83.6686 346.373 84.1553 346.853 84.5153 347.44C84.8886 348.027 85.142 348.667 85.2753 349.36C85.422 350.053 85.482 350.713 85.4553 351.34H77.7153C77.702 351.793 77.7553 352.227 77.8753 352.64C77.9953 353.04 78.1886 353.4 78.4553 353.72C78.722 354.027 79.062 354.273 79.4753 354.46C79.8886 354.647 80.3753 354.74 80.9353 354.74C81.6553 354.74 82.242 354.573 82.6953 354.24C83.162 353.907 83.4686 353.4 83.6153 352.72H85.2953ZM92.8839 341.72H94.5839V356H92.8839V341.72ZM106.378 355.96C106.084 356.133 105.678 356.22 105.158 356.22C104.718 356.22 104.364 356.1 104.098 355.86C103.844 355.607 103.718 355.2 103.718 354.64C103.251 355.2 102.704 355.607 102.078 355.86C101.464 356.1 100.798 356.22 100.078 356.22C99.6108 356.22 99.1642 356.167 98.7375 356.06C98.3242 355.953 97.9642 355.787 97.6575 355.56C97.3508 355.333 97.1042 355.04 96.9175 354.68C96.7442 354.307 96.6575 353.86 96.6575 353.34C96.6575 352.753 96.7575 352.273 96.9575 351.9C97.1575 351.527 97.4175 351.227 97.7375 351C98.0708 350.76 98.4442 350.58 98.8575 350.46C99.2842 350.34 99.7175 350.24 100.158 350.16C100.624 350.067 101.064 350 101.478 349.96C101.904 349.907 102.278 349.84 102.598 349.76C102.918 349.667 103.171 349.54 103.358 349.38C103.544 349.207 103.638 348.96 103.638 348.64C103.638 348.267 103.564 347.967 103.418 347.74C103.284 347.513 103.104 347.34 102.878 347.22C102.664 347.1 102.418 347.02 102.138 346.98C101.871 346.94 101.604 346.92 101.338 346.92C100.618 346.92 100.018 347.06 99.5375 347.34C99.0575 347.607 98.7975 348.12 98.7575 348.88H97.0575C97.0842 348.24 97.2175 347.7 97.4575 347.26C97.6975 346.82 98.0175 346.467 98.4175 346.2C98.8175 345.92 99.2708 345.72 99.7775 345.6C100.298 345.48 100.851 345.42 101.438 345.42C101.904 345.42 102.364 345.453 102.818 345.52C103.284 345.587 103.704 345.727 104.078 345.94C104.451 346.14 104.751 346.427 104.978 346.8C105.204 347.173 105.318 347.66 105.318 348.26V353.58C105.318 353.98 105.338 354.273 105.378 354.46C105.431 354.647 105.591 354.74 105.858 354.74C106.004 354.74 106.178 354.707 106.378 354.64V355.96ZM103.618 350.66C103.404 350.82 103.124 350.94 102.778 351.02C102.431 351.087 102.064 351.147 101.678 351.2C101.304 351.24 100.924 351.293 100.538 351.36C100.151 351.413 99.8042 351.507 99.4975 351.64C99.1908 351.773 98.9375 351.967 98.7375 352.22C98.5508 352.46 98.4575 352.793 98.4575 353.22C98.4575 353.5 98.5108 353.74 98.6175 353.94C98.7375 354.127 98.8842 354.28 99.0575 354.4C99.2442 354.52 99.4575 354.607 99.6975 354.66C99.9375 354.713 100.191 354.74 100.458 354.74C101.018 354.74 101.498 354.667 101.898 354.52C102.298 354.36 102.624 354.167 102.878 353.94C103.131 353.7 103.318 353.447 103.438 353.18C103.558 352.9 103.618 352.64 103.618 352.4V350.66ZM118.186 356H116.366L112.526 345.66H114.426L117.326 354.28H117.366L120.186 345.66H121.966L118.186 356ZM124.766 350.84C124.766 351.467 124.846 352.027 125.006 352.52C125.179 353 125.413 353.407 125.706 353.74C125.999 354.06 126.339 354.307 126.726 354.48C127.126 354.653 127.546 354.74 127.986 354.74C128.426 354.74 128.839 354.653 129.226 354.48C129.626 354.307 129.973 354.06 130.266 353.74C130.559 353.407 130.786 353 130.946 352.52C131.119 352.027 131.206 351.467 131.206 350.84C131.206 350.213 131.119 349.66 130.946 349.18C130.786 348.687 130.559 348.273 130.266 347.94C129.973 347.607 129.626 347.353 129.226 347.18C128.839 347.007 128.426 346.92 127.986 346.92C127.546 346.92 127.126 347.007 126.726 347.18C126.339 347.353 125.999 347.607 125.706 347.94C125.413 348.273 125.179 348.687 125.006 349.18C124.846 349.66 124.766 350.213 124.766 350.84ZM122.966 350.84C122.966 350.08 123.073 349.373 123.286 348.72C123.499 348.053 123.819 347.48 124.246 347C124.673 346.507 125.199 346.12 125.826 345.84C126.453 345.56 127.173 345.42 127.986 345.42C128.813 345.42 129.533 345.56 130.146 345.84C130.773 346.12 131.299 346.507 131.726 347C132.153 347.48 132.473 348.053 132.686 348.72C132.899 349.373 133.006 350.08 133.006 350.84C133.006 351.6 132.899 352.307 132.686 352.96C132.473 353.613 132.153 354.187 131.726 354.68C131.299 355.16 130.773 355.54 130.146 355.82C129.533 356.087 128.813 356.22 127.986 356.22C127.173 356.22 126.453 356.087 125.826 355.82C125.199 355.54 124.673 355.16 124.246 354.68C123.819 354.187 123.499 353.613 123.286 352.96C123.073 352.307 122.966 351.6 122.966 350.84ZM136.05 352.74C136.064 353.113 136.15 353.433 136.31 353.7C136.47 353.953 136.677 354.16 136.93 354.32C137.197 354.467 137.49 354.573 137.81 354.64C138.144 354.707 138.484 354.74 138.83 354.74C139.097 354.74 139.377 354.72 139.67 354.68C139.964 354.64 140.23 354.567 140.47 354.46C140.724 354.353 140.93 354.2 141.09 354C141.25 353.787 141.33 353.52 141.33 353.2C141.33 352.76 141.164 352.427 140.83 352.2C140.497 351.973 140.077 351.793 139.57 351.66C139.077 351.513 138.537 351.387 137.95 351.28C137.364 351.16 136.817 351 136.31 350.8C135.817 350.587 135.404 350.293 135.07 349.92C134.737 349.547 134.57 349.027 134.57 348.36C134.57 347.84 134.684 347.393 134.91 347.02C135.15 346.647 135.45 346.347 135.81 346.12C136.184 345.88 136.597 345.707 137.05 345.6C137.517 345.48 137.977 345.42 138.43 345.42C139.017 345.42 139.557 345.473 140.05 345.58C140.544 345.673 140.977 345.847 141.35 346.1C141.737 346.34 142.044 346.673 142.27 347.1C142.497 347.513 142.63 348.033 142.67 348.66H140.97C140.944 348.327 140.857 348.053 140.71 347.84C140.564 347.613 140.377 347.433 140.15 347.3C139.924 347.167 139.67 347.073 139.39 347.02C139.124 346.953 138.85 346.92 138.57 346.92C138.317 346.92 138.057 346.94 137.79 346.98C137.537 347.02 137.304 347.093 137.09 347.2C136.877 347.293 136.704 347.427 136.57 347.6C136.437 347.76 136.37 347.973 136.37 348.24C136.37 348.533 136.47 348.78 136.67 348.98C136.884 349.167 137.15 349.327 137.47 349.46C137.79 349.58 138.15 349.687 138.55 349.78C138.95 349.86 139.35 349.947 139.75 350.04C140.177 350.133 140.59 350.247 140.99 350.38C141.404 350.513 141.764 350.693 142.07 350.92C142.39 351.133 142.644 351.407 142.83 351.74C143.03 352.073 143.13 352.487 143.13 352.98C143.13 353.607 142.997 354.127 142.73 354.54C142.477 354.953 142.137 355.287 141.71 355.54C141.297 355.793 140.824 355.967 140.29 356.06C139.77 356.167 139.25 356.22 138.73 356.22C138.157 356.22 137.61 356.16 137.09 356.04C136.57 355.92 136.11 355.727 135.71 355.46C135.31 355.18 134.99 354.82 134.75 354.38C134.51 353.927 134.377 353.38 134.35 352.74H136.05ZM147.37 345.66H149.43V347.16H147.37V353.58C147.37 353.78 147.384 353.94 147.41 354.06C147.45 354.18 147.517 354.273 147.61 354.34C147.704 354.407 147.83 354.453 147.99 354.48C148.164 354.493 148.384 354.5 148.65 354.5H149.43V356H148.13C147.69 356 147.31 355.973 146.99 355.92C146.684 355.853 146.43 355.74 146.23 355.58C146.044 355.42 145.904 355.193 145.81 354.9C145.717 354.607 145.67 354.22 145.67 353.74V347.16H143.91V345.66H145.67V342.56H147.37V345.66ZM151.259 345.66H152.859V347.84H152.899C153.312 347 153.819 346.38 154.419 345.98C155.019 345.58 155.779 345.393 156.699 345.42V347.22C156.019 347.22 155.439 347.313 154.959 347.5C154.479 347.687 154.092 347.96 153.799 348.32C153.506 348.68 153.292 349.12 153.159 349.64C153.026 350.147 152.959 350.733 152.959 351.4V356H151.259V345.66ZM167.139 355.96C166.846 356.133 166.439 356.22 165.919 356.22C165.479 356.22 165.126 356.1 164.859 355.86C164.606 355.607 164.479 355.2 164.479 354.64C164.013 355.2 163.466 355.607 162.839 355.86C162.226 356.1 161.559 356.22 160.839 356.22C160.373 356.22 159.926 356.167 159.499 356.06C159.086 355.953 158.726 355.787 158.419 355.56C158.113 355.333 157.866 355.04 157.679 354.68C157.506 354.307 157.419 353.86 157.419 353.34C157.419 352.753 157.519 352.273 157.719 351.9C157.919 351.527 158.179 351.227 158.499 351C158.833 350.76 159.206 350.58 159.619 350.46C160.046 350.34 160.479 350.24 160.919 350.16C161.386 350.067 161.826 350 162.239 349.96C162.666 349.907 163.039 349.84 163.359 349.76C163.679 349.667 163.933 349.54 164.119 349.38C164.306 349.207 164.399 348.96 164.399 348.64C164.399 348.267 164.326 347.967 164.179 347.74C164.046 347.513 163.866 347.34 163.639 347.22C163.426 347.1 163.179 347.02 162.899 346.98C162.633 346.94 162.366 346.92 162.099 346.92C161.379 346.92 160.779 347.06 160.299 347.34C159.819 347.607 159.559 348.12 159.519 348.88H157.819C157.846 348.24 157.979 347.7 158.219 347.26C158.459 346.82 158.779 346.467 159.179 346.2C159.579 345.92 160.033 345.72 160.539 345.6C161.059 345.48 161.613 345.42 162.199 345.42C162.666 345.42 163.126 345.453 163.579 345.52C164.046 345.587 164.466 345.727 164.839 345.94C165.213 346.14 165.513 346.427 165.739 346.8C165.966 347.173 166.079 347.66 166.079 348.26V353.58C166.079 353.98 166.099 354.273 166.139 354.46C166.193 354.647 166.353 354.74 166.619 354.74C166.766 354.74 166.939 354.707 167.139 354.64V355.96ZM164.379 350.66C164.166 350.82 163.886 350.94 163.539 351.02C163.193 351.087 162.826 351.147 162.439 351.2C162.066 351.24 161.686 351.293 161.299 351.36C160.913 351.413 160.566 351.507 160.259 351.64C159.953 351.773 159.699 351.967 159.499 352.22C159.313 352.46 159.219 352.793 159.219 353.22C159.219 353.5 159.273 353.74 159.379 353.94C159.499 354.127 159.646 354.28 159.819 354.4C160.006 354.52 160.219 354.607 160.459 354.66C160.699 354.713 160.953 354.74 161.219 354.74C161.779 354.74 162.259 354.667 162.659 354.52C163.059 354.36 163.386 354.167 163.639 353.94C163.893 353.7 164.079 353.447 164.199 353.18C164.319 352.9 164.379 352.64 164.379 352.4V350.66ZM174.288 345.66H175.888V347.3H175.928C176.634 346.047 177.754 345.42 179.288 345.42C179.968 345.42 180.534 345.513 180.988 345.7C181.441 345.887 181.808 346.147 182.088 346.48C182.368 346.813 182.561 347.213 182.668 347.68C182.788 348.133 182.848 348.64 182.848 349.2V356H181.148V349C181.148 348.36 180.961 347.853 180.588 347.48C180.214 347.107 179.701 346.92 179.048 346.92C178.528 346.92 178.074 347 177.688 347.16C177.314 347.32 177.001 347.547 176.748 347.84C176.494 348.133 176.301 348.48 176.168 348.88C176.048 349.267 175.988 349.693 175.988 350.16V356H174.288V345.66ZM194.561 355.96C194.268 356.133 193.861 356.22 193.341 356.22C192.901 356.22 192.548 356.1 192.281 355.86C192.028 355.607 191.901 355.2 191.901 354.64C191.434 355.2 190.888 355.607 190.261 355.86C189.648 356.1 188.981 356.22 188.261 356.22C187.794 356.22 187.348 356.167 186.921 356.06C186.508 355.953 186.148 355.787 185.841 355.56C185.534 355.333 185.288 355.04 185.101 354.68C184.928 354.307 184.841 353.86 184.841 353.34C184.841 352.753 184.941 352.273 185.141 351.9C185.341 351.527 185.601 351.227 185.921 351C186.254 350.76 186.628 350.58 187.041 350.46C187.468 350.34 187.901 350.24 188.341 350.16C188.808 350.067 189.248 350 189.661 349.96C190.088 349.907 190.461 349.84 190.781 349.76C191.101 349.667 191.354 349.54 191.541 349.38C191.728 349.207 191.821 348.96 191.821 348.64C191.821 348.267 191.748 347.967 191.601 347.74C191.468 347.513 191.288 347.34 191.061 347.22C190.848 347.1 190.601 347.02 190.321 346.98C190.054 346.94 189.788 346.92 189.521 346.92C188.801 346.92 188.201 347.06 187.721 347.34C187.241 347.607 186.981 348.12 186.941 348.88H185.241C185.268 348.24 185.401 347.7 185.641 347.26C185.881 346.82 186.201 346.467 186.601 346.2C187.001 345.92 187.454 345.72 187.961 345.6C188.481 345.48 189.034 345.42 189.621 345.42C190.088 345.42 190.548 345.453 191.001 345.52C191.468 345.587 191.888 345.727 192.261 345.94C192.634 346.14 192.934 346.427 193.161 346.8C193.388 347.173 193.501 347.66 193.501 348.26V353.58C193.501 353.98 193.521 354.273 193.561 354.46C193.614 354.647 193.774 354.74 194.041 354.74C194.188 354.74 194.361 354.707 194.561 354.64V355.96ZM191.801 350.66C191.588 350.82 191.308 350.94 190.961 351.02C190.614 351.087 190.248 351.147 189.861 351.2C189.488 351.24 189.108 351.293 188.721 351.36C188.334 351.413 187.988 351.507 187.681 351.64C187.374 351.773 187.121 351.967 186.921 352.22C186.734 352.46 186.641 352.793 186.641 353.22C186.641 353.5 186.694 353.74 186.801 353.94C186.921 354.127 187.068 354.28 187.241 354.4C187.428 354.52 187.641 354.607 187.881 354.66C188.121 354.713 188.374 354.74 188.641 354.74C189.201 354.74 189.681 354.667 190.081 354.52C190.481 354.36 190.808 354.167 191.061 353.94C191.314 353.7 191.501 353.447 191.621 353.18C191.741 352.9 191.801 352.64 191.801 352.4V350.66ZM195.303 354.7L201.543 347.16H195.703V345.66H203.743V346.82L197.423 354.5H204.023V356H195.303V354.7ZM207.553 343.8H205.853V341.72H207.553V343.8ZM205.853 345.66H207.553V356H205.853V345.66ZM211.426 350.84C211.426 351.467 211.506 352.027 211.666 352.52C211.84 353 212.073 353.407 212.366 353.74C212.66 354.06 213 354.307 213.386 354.48C213.786 354.653 214.206 354.74 214.646 354.74C215.086 354.74 215.5 354.653 215.886 354.48C216.286 354.307 216.633 354.06 216.926 353.74C217.22 353.407 217.446 353 217.606 352.52C217.78 352.027 217.866 351.467 217.866 350.84C217.866 350.213 217.78 349.66 217.606 349.18C217.446 348.687 217.22 348.273 216.926 347.94C216.633 347.607 216.286 347.353 215.886 347.18C215.5 347.007 215.086 346.92 214.646 346.92C214.206 346.92 213.786 347.007 213.386 347.18C213 347.353 212.66 347.607 212.366 347.94C212.073 348.273 211.84 348.687 211.666 349.18C211.506 349.66 211.426 350.213 211.426 350.84ZM209.626 350.84C209.626 350.08 209.733 349.373 209.946 348.72C210.16 348.053 210.48 347.48 210.906 347C211.333 346.507 211.86 346.12 212.486 345.84C213.113 345.56 213.833 345.42 214.646 345.42C215.473 345.42 216.193 345.56 216.806 345.84C217.433 346.12 217.96 346.507 218.386 347C218.813 347.48 219.133 348.053 219.346 348.72C219.56 349.373 219.666 350.08 219.666 350.84C219.666 351.6 219.56 352.307 219.346 352.96C219.133 353.613 218.813 354.187 218.386 354.68C217.96 355.16 217.433 355.54 216.806 355.82C216.193 356.087 215.473 356.22 214.646 356.22C213.833 356.22 213.113 356.087 212.486 355.82C211.86 355.54 211.333 355.16 210.906 354.68C210.48 354.187 210.16 353.613 209.946 352.96C209.733 352.307 209.626 351.6 209.626 350.84ZM221.671 345.66H223.271V347.3H223.311C224.017 346.047 225.137 345.42 226.671 345.42C227.351 345.42 227.917 345.513 228.371 345.7C228.824 345.887 229.191 346.147 229.471 346.48C229.751 346.813 229.944 347.213 230.051 347.68C230.171 348.133 230.231 348.64 230.231 349.2V356H228.531V349C228.531 348.36 228.344 347.853 227.971 347.48C227.597 347.107 227.084 346.92 226.431 346.92C225.911 346.92 225.457 347 225.071 347.16C224.697 347.32 224.384 347.547 224.131 347.84C223.877 348.133 223.684 348.48 223.551 348.88C223.431 349.267 223.371 349.693 223.371 350.16V356H221.671V345.66ZM239.964 349.84C239.937 349.44 239.844 349.06 239.684 348.7C239.537 348.34 239.331 348.033 239.064 347.78C238.811 347.513 238.504 347.307 238.144 347.16C237.797 347 237.411 346.92 236.984 346.92C236.544 346.92 236.144 347 235.784 347.16C235.437 347.307 235.137 347.513 234.884 347.78C234.631 348.047 234.431 348.36 234.284 348.72C234.137 349.067 234.051 349.44 234.024 349.84H239.964ZM241.604 352.72C241.377 353.88 240.877 354.753 240.104 355.34C239.331 355.927 238.357 356.22 237.184 356.22C236.357 356.22 235.637 356.087 235.024 355.82C234.424 355.553 233.917 355.18 233.504 354.7C233.091 354.22 232.777 353.647 232.564 352.98C232.364 352.313 232.251 351.587 232.224 350.8C232.224 350.013 232.344 349.293 232.584 348.64C232.824 347.987 233.157 347.42 233.584 346.94C234.024 346.46 234.537 346.087 235.124 345.82C235.724 345.553 236.377 345.42 237.084 345.42C238.004 345.42 238.764 345.613 239.364 346C239.977 346.373 240.464 346.853 240.824 347.44C241.197 348.027 241.451 348.667 241.584 349.36C241.731 350.053 241.791 350.713 241.764 351.34H234.024C234.011 351.793 234.064 352.227 234.184 352.64C234.304 353.04 234.497 353.4 234.764 353.72C235.031 354.027 235.371 354.273 235.784 354.46C236.197 354.647 236.684 354.74 237.244 354.74C237.964 354.74 238.551 354.573 239.004 354.24C239.471 353.907 239.777 353.4 239.924 352.72H241.604ZM250.333 350.92C250.333 351.4 250.393 351.873 250.513 352.34C250.646 352.793 250.839 353.2 251.093 353.56C251.359 353.92 251.693 354.207 252.093 354.42C252.506 354.633 252.986 354.74 253.533 354.74C254.106 354.74 254.593 354.627 254.993 354.4C255.393 354.173 255.719 353.88 255.973 353.52C256.226 353.147 256.406 352.727 256.513 352.26C256.633 351.793 256.693 351.32 256.693 350.84C256.693 350.333 256.633 349.847 256.513 349.38C256.393 348.9 256.199 348.48 255.933 348.12C255.679 347.76 255.346 347.473 254.933 347.26C254.519 347.033 254.019 346.92 253.433 346.92C252.859 346.92 252.373 347.033 251.973 347.26C251.573 347.487 251.253 347.787 251.013 348.16C250.773 348.533 250.599 348.96 250.493 349.44C250.386 349.92 250.333 350.413 250.333 350.92ZM258.333 356H256.633V354.6H256.593C256.313 355.173 255.873 355.587 255.273 355.84C254.673 356.093 254.013 356.22 253.293 356.22C252.493 356.22 251.793 356.073 251.193 355.78C250.606 355.487 250.113 355.093 249.713 354.6C249.326 354.107 249.033 353.533 248.833 352.88C248.633 352.227 248.533 351.533 248.533 350.8C248.533 350.067 248.626 349.373 248.813 348.72C249.013 348.067 249.306 347.5 249.693 347.02C250.093 346.527 250.586 346.14 251.173 345.86C251.773 345.567 252.466 345.42 253.253 345.42C253.519 345.42 253.806 345.447 254.113 345.5C254.419 345.553 254.726 345.647 255.033 345.78C255.339 345.9 255.626 346.067 255.893 346.28C256.173 346.48 256.406 346.733 256.593 347.04H256.633V341.72H258.333V356ZM270.108 355.96C269.815 356.133 269.408 356.22 268.888 356.22C268.448 356.22 268.095 356.1 267.828 355.86C267.575 355.607 267.448 355.2 267.448 354.64C266.981 355.2 266.435 355.607 265.808 355.86C265.195 356.1 264.528 356.22 263.808 356.22C263.341 356.22 262.895 356.167 262.468 356.06C262.055 355.953 261.695 355.787 261.388 355.56C261.081 355.333 260.835 355.04 260.648 354.68C260.475 354.307 260.388 353.86 260.388 353.34C260.388 352.753 260.488 352.273 260.688 351.9C260.888 351.527 261.148 351.227 261.468 351C261.801 350.76 262.175 350.58 262.588 350.46C263.015 350.34 263.448 350.24 263.888 350.16C264.355 350.067 264.795 350 265.208 349.96C265.635 349.907 266.008 349.84 266.328 349.76C266.648 349.667 266.901 349.54 267.088 349.38C267.275 349.207 267.368 348.96 267.368 348.64C267.368 348.267 267.295 347.967 267.148 347.74C267.015 347.513 266.835 347.34 266.608 347.22C266.395 347.1 266.148 347.02 265.868 346.98C265.601 346.94 265.335 346.92 265.068 346.92C264.348 346.92 263.748 347.06 263.268 347.34C262.788 347.607 262.528 348.12 262.488 348.88H260.788C260.815 348.24 260.948 347.7 261.188 347.26C261.428 346.82 261.748 346.467 262.148 346.2C262.548 345.92 263.001 345.72 263.508 345.6C264.028 345.48 264.581 345.42 265.168 345.42C265.635 345.42 266.095 345.453 266.548 345.52C267.015 345.587 267.435 345.727 267.808 345.94C268.181 346.14 268.481 346.427 268.708 346.8C268.935 347.173 269.048 347.66 269.048 348.26V353.58C269.048 353.98 269.068 354.273 269.108 354.46C269.161 354.647 269.321 354.74 269.588 354.74C269.735 354.74 269.908 354.707 270.108 354.64V355.96ZM267.348 350.66C267.135 350.82 266.855 350.94 266.508 351.02C266.161 351.087 265.795 351.147 265.408 351.2C265.035 351.24 264.655 351.293 264.268 351.36C263.881 351.413 263.535 351.507 263.228 351.64C262.921 351.773 262.668 351.967 262.468 352.22C262.281 352.46 262.188 352.793 262.188 353.22C262.188 353.5 262.241 353.74 262.348 353.94C262.468 354.127 262.615 354.28 262.788 354.4C262.975 354.52 263.188 354.607 263.428 354.66C263.668 354.713 263.921 354.74 264.188 354.74C264.748 354.74 265.228 354.667 265.628 354.52C266.028 354.36 266.355 354.167 266.608 353.94C266.861 353.7 267.048 353.447 267.168 353.18C267.288 352.9 267.348 352.64 267.348 352.4V350.66ZM285.817 356H284.217V354.36H284.177C283.817 355 283.357 355.473 282.797 355.78C282.237 356.073 281.577 356.22 280.817 356.22C280.137 356.22 279.57 356.133 279.117 355.96C278.663 355.773 278.297 355.513 278.017 355.18C277.737 354.847 277.537 354.453 277.417 354C277.31 353.533 277.257 353.02 277.257 352.46V345.66H278.957V352.66C278.957 353.3 279.143 353.807 279.517 354.18C279.89 354.553 280.403 354.74 281.057 354.74C281.577 354.74 282.023 354.66 282.397 354.5C282.783 354.34 283.103 354.113 283.357 353.82C283.61 353.527 283.797 353.187 283.917 352.8C284.05 352.4 284.117 351.967 284.117 351.5V345.66H285.817V356ZM288.37 345.66H289.97V347.3H290.01C290.717 346.047 291.837 345.42 293.37 345.42C294.05 345.42 294.617 345.513 295.07 345.7C295.523 345.887 295.89 346.147 296.17 346.48C296.45 346.813 296.643 347.213 296.75 347.68C296.87 348.133 296.93 348.64 296.93 349.2V356H295.23V349C295.23 348.36 295.043 347.853 294.67 347.48C294.297 347.107 293.783 346.92 293.13 346.92C292.61 346.92 292.157 347 291.77 347.16C291.397 347.32 291.083 347.547 290.83 347.84C290.577 348.133 290.383 348.48 290.25 348.88C290.13 349.267 290.07 349.693 290.07 350.16V356H288.37V345.66ZM308.643 355.96C308.35 356.133 307.943 356.22 307.423 356.22C306.983 356.22 306.63 356.1 306.363 355.86C306.11 355.607 305.983 355.2 305.983 354.64C305.516 355.2 304.97 355.607 304.343 355.86C303.73 356.1 303.063 356.22 302.343 356.22C301.876 356.22 301.43 356.167 301.003 356.06C300.59 355.953 300.23 355.787 299.923 355.56C299.616 355.333 299.37 355.04 299.183 354.68C299.01 354.307 298.923 353.86 298.923 353.34C298.923 352.753 299.023 352.273 299.223 351.9C299.423 351.527 299.683 351.227 300.003 351C300.336 350.76 300.71 350.58 301.123 350.46C301.55 350.34 301.983 350.24 302.423 350.16C302.89 350.067 303.33 350 303.743 349.96C304.17 349.907 304.543 349.84 304.863 349.76C305.183 349.667 305.436 349.54 305.623 349.38C305.81 349.207 305.903 348.96 305.903 348.64C305.903 348.267 305.83 347.967 305.683 347.74C305.55 347.513 305.37 347.34 305.143 347.22C304.93 347.1 304.683 347.02 304.403 346.98C304.136 346.94 303.87 346.92 303.603 346.92C302.883 346.92 302.283 347.06 301.803 347.34C301.323 347.607 301.063 348.12 301.023 348.88H299.323C299.35 348.24 299.483 347.7 299.723 347.26C299.963 346.82 300.283 346.467 300.683 346.2C301.083 345.92 301.536 345.72 302.043 345.6C302.563 345.48 303.116 345.42 303.703 345.42C304.17 345.42 304.63 345.453 305.083 345.52C305.55 345.587 305.97 345.727 306.343 345.94C306.716 346.14 307.016 346.427 307.243 346.8C307.47 347.173 307.583 347.66 307.583 348.26V353.58C307.583 353.98 307.603 354.273 307.643 354.46C307.696 354.647 307.856 354.74 308.123 354.74C308.27 354.74 308.443 354.707 308.643 354.64V355.96ZM305.883 350.66C305.67 350.82 305.39 350.94 305.043 351.02C304.696 351.087 304.33 351.147 303.943 351.2C303.57 351.24 303.19 351.293 302.803 351.36C302.416 351.413 302.07 351.507 301.763 351.64C301.456 351.773 301.203 351.967 301.003 352.22C300.816 352.46 300.723 352.793 300.723 353.22C300.723 353.5 300.776 353.74 300.883 353.94C301.003 354.127 301.15 354.28 301.323 354.4C301.51 354.52 301.723 354.607 301.963 354.66C302.203 354.713 302.456 354.74 302.723 354.74C303.283 354.74 303.763 354.667 304.163 354.52C304.563 354.36 304.89 354.167 305.143 353.94C305.396 353.7 305.583 353.447 305.703 353.18C305.823 352.9 305.883 352.64 305.883 352.4V350.66ZM322.812 348.98C322.678 348.327 322.398 347.82 321.972 347.46C321.545 347.1 320.972 346.92 320.252 346.92C319.638 346.92 319.125 347.033 318.712 347.26C318.298 347.487 317.965 347.787 317.712 348.16C317.472 348.533 317.298 348.967 317.192 349.46C317.085 349.94 317.032 350.44 317.032 350.96C317.032 351.44 317.085 351.907 317.192 352.36C317.312 352.813 317.492 353.22 317.732 353.58C317.972 353.927 318.285 354.207 318.672 354.42C319.058 354.633 319.518 354.74 320.052 354.74C320.892 354.74 321.545 354.52 322.012 354.08C322.492 353.64 322.785 353.02 322.892 352.22H324.632C324.445 353.5 323.965 354.487 323.192 355.18C322.432 355.873 321.392 356.22 320.072 356.22C319.285 356.22 318.585 356.093 317.972 355.84C317.372 355.587 316.865 355.227 316.452 354.76C316.052 354.293 315.745 353.74 315.532 353.1C315.332 352.447 315.232 351.733 315.232 350.96C315.232 350.187 315.332 349.467 315.532 348.8C315.732 348.12 316.032 347.533 316.432 347.04C316.845 346.533 317.358 346.14 317.972 345.86C318.585 345.567 319.298 345.42 320.112 345.42C320.698 345.42 321.245 345.493 321.752 345.64C322.272 345.773 322.725 345.987 323.112 346.28C323.512 346.573 323.838 346.947 324.092 347.4C324.345 347.84 324.505 348.367 324.572 348.98H322.812ZM326.474 345.66H328.074V347.84H328.114C328.527 347 329.034 346.38 329.634 345.98C330.234 345.58 330.994 345.393 331.914 345.42V347.22C331.234 347.22 330.654 347.313 330.174 347.5C329.694 347.687 329.307 347.96 329.014 348.32C328.721 348.68 328.507 349.12 328.374 349.64C328.241 350.147 328.174 350.733 328.174 351.4V356H326.474V345.66ZM334.994 343.8H333.294V341.72H334.994V343.8ZM333.294 345.66H334.994V356H333.294V345.66ZM338.668 352.74C338.681 353.113 338.768 353.433 338.928 353.7C339.088 353.953 339.294 354.16 339.548 354.32C339.814 354.467 340.108 354.573 340.428 354.64C340.761 354.707 341.101 354.74 341.448 354.74C341.714 354.74 341.994 354.72 342.288 354.68C342.581 354.64 342.848 354.567 343.088 354.46C343.341 354.353 343.548 354.2 343.708 354C343.868 353.787 343.948 353.52 343.948 353.2C343.948 352.76 343.781 352.427 343.448 352.2C343.114 351.973 342.694 351.793 342.188 351.66C341.694 351.513 341.154 351.387 340.568 351.28C339.981 351.16 339.434 351 338.928 350.8C338.434 350.587 338.021 350.293 337.688 349.92C337.354 349.547 337.188 349.027 337.188 348.36C337.188 347.84 337.301 347.393 337.528 347.02C337.768 346.647 338.068 346.347 338.428 346.12C338.801 345.88 339.214 345.707 339.668 345.6C340.134 345.48 340.594 345.42 341.048 345.42C341.634 345.42 342.174 345.473 342.668 345.58C343.161 345.673 343.594 345.847 343.968 346.1C344.354 346.34 344.661 346.673 344.888 347.1C345.114 347.513 345.248 348.033 345.288 348.66H343.588C343.561 348.327 343.474 348.053 343.328 347.84C343.181 347.613 342.994 347.433 342.768 347.3C342.541 347.167 342.288 347.073 342.008 347.02C341.741 346.953 341.468 346.92 341.188 346.92C340.934 346.92 340.674 346.94 340.408 346.98C340.154 347.02 339.921 347.093 339.708 347.2C339.494 347.293 339.321 347.427 339.188 347.6C339.054 347.76 338.988 347.973 338.988 348.24C338.988 348.533 339.088 348.78 339.288 348.98C339.501 349.167 339.768 349.327 340.088 349.46C340.408 349.58 340.768 349.687 341.168 349.78C341.568 349.86 341.968 349.947 342.368 350.04C342.794 350.133 343.208 350.247 343.608 350.38C344.021 350.513 344.381 350.693 344.688 350.92C345.008 351.133 345.261 351.407 345.448 351.74C345.648 352.073 345.748 352.487 345.748 352.98C345.748 353.607 345.614 354.127 345.348 354.54C345.094 354.953 344.754 355.287 344.328 355.54C343.914 355.793 343.441 355.967 342.908 356.06C342.388 356.167 341.868 356.22 341.348 356.22C340.774 356.22 340.228 356.16 339.708 356.04C339.188 355.92 338.728 355.727 338.328 355.46C337.928 355.18 337.608 354.82 337.368 354.38C337.128 353.927 336.994 353.38 336.968 352.74H338.668ZM349.428 343.8H347.728V341.72H349.428V343.8ZM347.728 345.66H349.428V356H347.728V345.66ZM28.46 369.84C28.4333 369.44 28.34 369.06 28.18 368.7C28.0333 368.34 27.8267 368.033 27.56 367.78C27.3067 367.513 27 367.307 26.64 367.16C26.2933 367 25.9067 366.92 25.48 366.92C25.04 366.92 24.64 367 24.28 367.16C23.9333 367.307 23.6333 367.513 23.38 367.78C23.1267 368.047 22.9267 368.36 22.78 368.72C22.6333 369.067 22.5467 369.44 22.52 369.84H28.46ZM30.1 372.72C29.8733 373.88 29.3733 374.753 28.6 375.34C27.8267 375.927 26.8533 376.22 25.68 376.22C24.8533 376.22 24.1333 376.087 23.52 375.82C22.92 375.553 22.4133 375.18 22 374.7C21.5867 374.22 21.2733 373.647 21.06 372.98C20.86 372.313 20.7467 371.587 20.72 370.8C20.72 370.013 20.84 369.293 21.08 368.64C21.32 367.987 21.6533 367.42 22.08 366.94C22.52 366.46 23.0333 366.087 23.62 365.82C24.22 365.553 24.8733 365.42 25.58 365.42C26.5 365.42 27.26 365.613 27.86 366C28.4733 366.373 28.96 366.853 29.32 367.44C29.6933 368.027 29.9467 368.667 30.08 369.36C30.2267 370.053 30.2867 370.713 30.26 371.34H22.52C22.5067 371.793 22.56 372.227 22.68 372.64C22.8 373.04 22.9933 373.4 23.26 373.72C23.5267 374.027 23.8667 374.273 24.28 374.46C24.6933 374.647 25.18 374.74 25.74 374.74C26.46 374.74 27.0467 374.573 27.5 374.24C27.9667 373.907 28.2733 373.4 28.42 372.72H30.1ZM32.0222 365.66H33.6222V367.3H33.6622C34.3689 366.047 35.4889 365.42 37.0222 365.42C37.7022 365.42 38.2689 365.513 38.7222 365.7C39.1755 365.887 39.5422 366.147 39.8222 366.48C40.1022 366.813 40.2955 367.213 40.4022 367.68C40.5222 368.133 40.5822 368.64 40.5822 369.2V376H38.8822V369C38.8822 368.36 38.6955 367.853 38.3222 367.48C37.9489 367.107 37.4355 366.92 36.7822 366.92C36.2622 366.92 35.8089 367 35.4222 367.16C35.0489 367.32 34.7355 367.547 34.4822 367.84C34.2289 368.133 34.0355 368.48 33.9022 368.88C33.7822 369.267 33.7222 369.693 33.7222 370.16V376H32.0222V365.66ZM50.3155 369.84C50.2888 369.44 50.1955 369.06 50.0355 368.7C49.8888 368.34 49.6821 368.033 49.4155 367.78C49.1621 367.513 48.8555 367.307 48.4955 367.16C48.1488 367 47.7621 366.92 47.3355 366.92C46.8955 366.92 46.4955 367 46.1355 367.16C45.7888 367.307 45.4888 367.513 45.2355 367.78C44.9821 368.047 44.7821 368.36 44.6355 368.72C44.4888 369.067 44.4021 369.44 44.3755 369.84H50.3155ZM51.9555 372.72C51.7288 373.88 51.2288 374.753 50.4555 375.34C49.6821 375.927 48.7088 376.22 47.5355 376.22C46.7088 376.22 45.9888 376.087 45.3755 375.82C44.7755 375.553 44.2688 375.18 43.8555 374.7C43.4421 374.22 43.1288 373.647 42.9155 372.98C42.7155 372.313 42.6021 371.587 42.5755 370.8C42.5755 370.013 42.6955 369.293 42.9355 368.64C43.1755 367.987 43.5088 367.42 43.9355 366.94C44.3755 366.46 44.8888 366.087 45.4755 365.82C46.0755 365.553 46.7288 365.42 47.4355 365.42C48.3555 365.42 49.1155 365.613 49.7155 366C50.3288 366.373 50.8155 366.853 51.1755 367.44C51.5488 368.027 51.8021 368.667 51.9355 369.36C52.0821 370.053 52.1421 370.713 52.1155 371.34H44.3755C44.3621 371.793 44.4155 372.227 44.5355 372.64C44.6555 373.04 44.8488 373.4 45.1155 373.72C45.3821 374.027 45.7221 374.273 46.1355 374.46C46.5488 374.647 47.0355 374.74 47.5955 374.74C48.3155 374.74 48.9021 374.573 49.3555 374.24C49.8221 373.907 50.1288 373.4 50.2755 372.72H51.9555ZM53.8177 365.66H55.4177V367.84H55.4577C55.871 367 56.3777 366.38 56.9777 365.98C57.5777 365.58 58.3377 365.393 59.2577 365.42V367.22C58.5777 367.22 57.9977 367.313 57.5177 367.5C57.0377 367.687 56.651 367.96 56.3577 368.32C56.0643 368.68 55.851 369.12 55.7177 369.64C55.5843 370.147 55.5177 370.733 55.5177 371.4V376H53.8177V365.66ZM68.8914 375.12C68.8914 376.813 68.5047 378.08 67.7314 378.92C66.9581 379.76 65.7447 380.18 64.0914 380.18C63.6114 380.18 63.1181 380.127 62.6114 380.02C62.1181 379.913 61.6647 379.74 61.2514 379.5C60.8514 379.26 60.5181 378.947 60.2514 378.56C59.9847 378.173 59.8381 377.7 59.8114 377.14H61.5114C61.5247 377.447 61.6181 377.707 61.7914 377.92C61.9781 378.133 62.1981 378.307 62.4514 378.44C62.7181 378.573 63.0047 378.667 63.3114 378.72C63.6181 378.787 63.9114 378.82 64.1914 378.82C64.7514 378.82 65.2247 378.72 65.6114 378.52C65.9981 378.333 66.3181 378.067 66.5714 377.72C66.8247 377.387 67.0047 376.98 67.1114 376.5C67.2314 376.02 67.2914 375.493 67.2914 374.92V374.24H67.2514C66.9581 374.88 66.5114 375.353 65.9114 375.66C65.3247 375.953 64.6981 376.1 64.0314 376.1C63.2581 376.1 62.5847 375.96 62.0114 375.68C61.4381 375.4 60.9581 375.027 60.5714 374.56C60.1847 374.08 59.8914 373.527 59.6914 372.9C59.5047 372.26 59.4114 371.587 59.4114 370.88C59.4114 370.267 59.4914 369.64 59.6514 369C59.8114 368.347 60.0781 367.76 60.4514 367.24C60.8247 366.707 61.3181 366.273 61.9314 365.94C62.5447 365.593 63.2981 365.42 64.1914 365.42C64.8447 365.42 65.4447 365.567 65.9914 365.86C66.5381 366.14 66.9647 366.567 67.2714 367.14H67.2914V365.66H68.8914V375.12ZM64.1314 374.62C64.6914 374.62 65.1647 374.507 65.5514 374.28C65.9514 374.04 66.2714 373.733 66.5114 373.36C66.7514 372.973 66.9247 372.54 67.0314 372.06C67.1514 371.58 67.2114 371.1 67.2114 370.62C67.2114 370.167 67.1581 369.72 67.0514 369.28C66.9447 368.84 66.7714 368.447 66.5314 368.1C66.3047 367.74 66.0047 367.453 65.6314 367.24C65.2581 367.027 64.8047 366.92 64.2714 366.92C63.7247 366.92 63.2581 367.027 62.8714 367.24C62.4847 367.44 62.1647 367.713 61.9114 368.06C61.6714 368.407 61.4914 368.807 61.3714 369.26C61.2647 369.713 61.2114 370.187 61.2114 370.68C61.2114 371.147 61.2581 371.613 61.3514 372.08C61.4447 372.547 61.6047 372.973 61.8314 373.36C62.0581 373.733 62.3581 374.04 62.7314 374.28C63.1047 374.507 63.5714 374.62 64.1314 374.62ZM78.6358 369.84C78.6091 369.44 78.5158 369.06 78.3558 368.7C78.2091 368.34 78.0024 368.033 77.7358 367.78C77.4824 367.513 77.1758 367.307 76.8158 367.16C76.4691 367 76.0824 366.92 75.6558 366.92C75.2158 366.92 74.8158 367 74.4558 367.16C74.1091 367.307 73.8091 367.513 73.5558 367.78C73.3024 368.047 73.1024 368.36 72.9558 368.72C72.8091 369.067 72.7224 369.44 72.6958 369.84H78.6358ZM80.2758 372.72C80.0491 373.88 79.5491 374.753 78.7758 375.34C78.0024 375.927 77.0291 376.22 75.8558 376.22C75.0291 376.22 74.3091 376.087 73.6958 375.82C73.0958 375.553 72.5891 375.18 72.1758 374.7C71.7624 374.22 71.4491 373.647 71.2358 372.98C71.0358 372.313 70.9224 371.587 70.8958 370.8C70.8958 370.013 71.0158 369.293 71.2558 368.64C71.4958 367.987 71.8291 367.42 72.2558 366.94C72.6958 366.46 73.2091 366.087 73.7958 365.82C74.3958 365.553 75.0491 365.42 75.7558 365.42C76.6758 365.42 77.4358 365.613 78.0358 366C78.6491 366.373 79.1358 366.853 79.4958 367.44C79.8691 368.027 80.1224 368.667 80.2558 369.36C80.4024 370.053 80.4624 370.713 80.4358 371.34H72.6958C72.6824 371.793 72.7358 372.227 72.8558 372.64C72.9758 373.04 73.1691 373.4 73.4358 373.72C73.7024 374.027 74.0424 374.273 74.4558 374.46C74.8691 374.647 75.3558 374.74 75.9158 374.74C76.6358 374.74 77.2224 374.573 77.6758 374.24C78.1424 373.907 78.4491 373.4 78.5958 372.72H80.2758ZM84.558 365.66H86.618V367.16H84.558V373.58C84.558 373.78 84.5713 373.94 84.598 374.06C84.638 374.18 84.7046 374.273 84.798 374.34C84.8913 374.407 85.018 374.453 85.178 374.48C85.3513 374.493 85.5713 374.5 85.838 374.5H86.618V376H85.318C84.878 376 84.498 375.973 84.178 375.92C83.8713 375.853 83.618 375.74 83.418 375.58C83.2313 375.42 83.0913 375.193 82.998 374.9C82.9046 374.607 82.858 374.22 82.858 373.74V367.16H81.098V365.66H82.858V362.56H84.558V365.66ZM90.3066 363.8H88.6066V361.72H90.3066V363.8ZM88.6066 365.66H90.3066V376H88.6066V365.66ZM99.9602 368.98C99.8268 368.327 99.5468 367.82 99.1202 367.46C98.6935 367.1 98.1202 366.92 97.4002 366.92C96.7868 366.92 96.2735 367.033 95.8602 367.26C95.4468 367.487 95.1135 367.787 94.8602 368.16C94.6202 368.533 94.4468 368.967 94.3402 369.46C94.2335 369.94 94.1802 370.44 94.1802 370.96C94.1802 371.44 94.2335 371.907 94.3402 372.36C94.4602 372.813 94.6402 373.22 94.8802 373.58C95.1202 373.927 95.4335 374.207 95.8202 374.42C96.2068 374.633 96.6668 374.74 97.2002 374.74C98.0402 374.74 98.6935 374.52 99.1602 374.08C99.6402 373.64 99.9335 373.02 100.04 372.22H101.78C101.593 373.5 101.113 374.487 100.34 375.18C99.5802 375.873 98.5402 376.22 97.2202 376.22C96.4335 376.22 95.7335 376.093 95.1202 375.84C94.5202 375.587 94.0135 375.227 93.6002 374.76C93.2002 374.293 92.8935 373.74 92.6802 373.1C92.4802 372.447 92.3802 371.733 92.3802 370.96C92.3802 370.187 92.4802 369.467 92.6802 368.8C92.8802 368.12 93.1802 367.533 93.5802 367.04C93.9935 366.533 94.5068 366.14 95.1202 365.86C95.7335 365.567 96.4468 365.42 97.2602 365.42C97.8468 365.42 98.3935 365.493 98.9002 365.64C99.4202 365.773 99.8735 365.987 100.26 366.28C100.66 366.573 100.987 366.947 101.24 367.4C101.493 367.84 101.653 368.367 101.72 368.98H99.9602ZM112.842 375.96C112.549 376.133 112.142 376.22 111.622 376.22C111.182 376.22 110.829 376.1 110.562 375.86C110.309 375.607 110.182 375.2 110.182 374.64C109.716 375.2 109.169 375.607 108.542 375.86C107.929 376.1 107.262 376.22 106.542 376.22C106.076 376.22 105.629 376.167 105.202 376.06C104.789 375.953 104.429 375.787 104.122 375.56C103.816 375.333 103.569 375.04 103.382 374.68C103.209 374.307 103.122 373.86 103.122 373.34C103.122 372.753 103.222 372.273 103.422 371.9C103.622 371.527 103.882 371.227 104.202 371C104.536 370.76 104.909 370.58 105.322 370.46C105.749 370.34 106.182 370.24 106.622 370.16C107.089 370.067 107.529 370 107.942 369.96C108.369 369.907 108.742 369.84 109.062 369.76C109.382 369.667 109.636 369.54 109.822 369.38C110.009 369.207 110.102 368.96 110.102 368.64C110.102 368.267 110.029 367.967 109.882 367.74C109.749 367.513 109.569 367.34 109.342 367.22C109.129 367.1 108.882 367.02 108.602 366.98C108.336 366.94 108.069 366.92 107.802 366.92C107.082 366.92 106.482 367.06 106.002 367.34C105.522 367.607 105.262 368.12 105.222 368.88H103.522C103.549 368.24 103.682 367.7 103.922 367.26C104.162 366.82 104.482 366.467 104.882 366.2C105.282 365.92 105.736 365.72 106.242 365.6C106.762 365.48 107.316 365.42 107.902 365.42C108.369 365.42 108.829 365.453 109.282 365.52C109.749 365.587 110.169 365.727 110.542 365.94C110.916 366.14 111.216 366.427 111.442 366.8C111.669 367.173 111.782 367.66 111.782 368.26V373.58C111.782 373.98 111.802 374.273 111.842 374.46C111.896 374.647 112.056 374.74 112.322 374.74C112.469 374.74 112.642 374.707 112.842 374.64V375.96ZM110.082 370.66C109.869 370.82 109.589 370.94 109.242 371.02C108.896 371.087 108.529 371.147 108.142 371.2C107.769 371.24 107.389 371.293 107.002 371.36C106.616 371.413 106.269 371.507 105.962 371.64C105.656 371.773 105.402 371.967 105.202 372.22C105.016 372.46 104.922 372.793 104.922 373.22C104.922 373.5 104.976 373.74 105.082 373.94C105.202 374.127 105.349 374.28 105.522 374.4C105.709 374.52 105.922 374.607 106.162 374.66C106.402 374.713 106.656 374.74 106.922 374.74C107.482 374.74 107.962 374.667 108.362 374.52C108.762 374.36 109.089 374.167 109.342 373.94C109.596 373.7 109.782 373.447 109.902 373.18C110.022 372.9 110.082 372.64 110.082 372.4V370.66Z" fill="#442000"/>
<circle cx="162" cy="602" r="10" fill="#ECD2BB"/>
<circle cx="195" cy="602" r="10" fill="#442000"/>
<circle cx="228" cy="602" r="10" fill="#442000"/>
<defs>
<clipPath id="clip0_1022_2741">
<rect width="162" height="45" fill="white" transform="translate(114 58)"/>
</clipPath>
</defs>
</svg>
